<?xml version="1.0" standalone="no"?><!DOCTYPE svg PUBLIC "-//W3C//DTD SVG 1.1//EN" "http://www.w3.org/Graphics/SVG/1.1/DTD/svg11.dtd"><svg xmlns="http://www.w3.org/2000/svg" version="1.1" width="650.507" height="915.951" xmlns:xlink="http://www.w3.org/1999/xlink" xlink="http://www.w3.org/1999/xlink" style="position:relative;" viewBox="70.056 41.605 650.507 915.951"><defs><filter id="184d402e-6c6d-4d13-8ca9-b8eca1072f8f" x="-0.5" y="-0.5" width="2" height="2"><feFlood flood-color="#000" flood-opacity="0.6" result="flood"/><feComposite in="flood" in2="SourceAlpha" operator="in" result="mask"/><feGaussianBlur in="mask" stdDeviation="2"/><feOffset dx="1.25" dy="1.25" result="oEffect0"/><feMerge><feMergeNode in="oEffect0"/><feMergeNode in="SourceGraphic"/></feMerge></filter><filter id="7bb9da86-bc63-4fdf-84ef-916fe5d4a9be" x="-0.5" y="-0.5" width="2" height="2"><feFlood flood-color="#000" flood-opacity="0.6" result="flood"/><feComposite in="flood" in2="SourceAlpha" operator="in" result="mask"/><feGaussianBlur in="mask" stdDeviation="2"/><feOffset dx="0.2" dy="0.2" result="oEffect0"/><feMerge><feMergeNode in="oEffect0"/><feMergeNode in="SourceGraphic"/></feMerge></filter><filter id="333b4262-80a8-4344-b141-66a391390434" x="-0.5" y="-0.5" width="2" height="2"><feFlood flood-color="#000" flood-opacity="0.6" result="flood"/><feComposite in="flood" in2="SourceAlpha" operator="in" result="mask"/><feGaussianBlur in="mask" stdDeviation="2"/><feOffset dx="0.5" dy="0.5" result="oEffect0"/><feMerge><feMergeNode in="oEffect0"/><feMergeNode in="SourceGraphic"/></feMerge></filter></defs><g><g width="0" height="785" transform="scale(1,1) translate(338.583,166.555)"><g transform="scale(1,1) translate(0,0)" fill="#7F7F7F" stroke="#7F7F7F" stroke-opacity="1"><path d="M0,0 L0,785" fill="none" stroke-width="2" stroke-dasharray="6,2"/><g><g stroke-dasharray="none"><path d="M-2,-2L2,-2L2,2L-2,2z" stroke-width="0" fill="none"/></g></g></g></g><g width="180.556" height="17.708" transform="scale(1,1) translate(82.056,146)"><g stroke="#000000" opacity="1" stroke-width="0" stroke-dasharray="none" width="180.556" height="17.708" transform="scale(1,1) translate(0,0)" fill="none" stroke-opacity="1"><rect width="180.556" height="17.708"/></g><g width="180.5555534362793" height="17.708332061767578" transform="scale(1,1) translate(0,0)"><text width="180.5555534362793" height="17.708332061767578" transform="scale(1,1) translate(0,0)" xml:space="preserve"><tspan xml:space="preserve" text-rendering="optimizeSpeed" font-size="16.666666666666668" font-weight="bold" font-style="normal" fill="#333333" x="0" text-anchor="start" y="14.583" textLength="55.5555534362793" style="font-family: Arial, 'Helvetica Neue', Helvetica, sans-serif;">Echipa</tspan><tspan xml:space="preserve" text-rendering="optimizeSpeed" font-size="16.666666666666668" font-weight="bold" font-style="normal" fill="#333333" x="55.556" text-anchor="start" y="14.583" textLength="28.935184478759766" style="font-family: Arial, 'Helvetica Neue', Helvetica, sans-serif;"> de </tspan><tspan xml:space="preserve" text-rendering="optimizeSpeed" font-size="16.666666666666668" font-weight="bold" font-style="normal" fill="#333333" x="84.491" text-anchor="start" y="14.583" textLength="96.06481170654297" style="font-family: Arial, 'Helvetica Neue', Helvetica, sans-serif;">Programere</tspan></text></g></g><g width="49.769" height="17.708" transform="scale(1,1) translate(292.366,146)"><g stroke="#000000" opacity="1" stroke-width="0" stroke-dasharray="none" width="49.769" height="17.708" transform="scale(1,1) translate(0,0)" fill="none" stroke-opacity="1"><rect width="49.769" height="17.708"/></g><g width="49.768516540527344" height="17.708332061767578" transform="scale(1,1) translate(0,0)"><text width="49.768516540527344" height="17.708332061767578" transform="scale(1,1) translate(0,0)" xml:space="preserve"><tspan xml:space="preserve" text-rendering="optimizeSpeed" font-size="16.666666666666668" font-weight="bold" font-style="normal" fill="#333333" x="0" text-anchor="start" y="14.583" textLength="49.768516540527344" style="font-family: Arial, 'Helvetica Neue', Helvetica, sans-serif;">Graful</tspan></text></g></g><g width="86.806" height="17.708" transform="scale(1,1) translate(422.431,146)"><g stroke="#000000" opacity="1" stroke-width="0" stroke-dasharray="none" width="86.806" height="17.708" transform="scale(1,1) translate(0,0)" fill="none" stroke-opacity="1"><rect width="86.806" height="17.708"/></g><g width="86.80554962158203" height="17.708332061767578" transform="scale(1,1) translate(0,0)"><text width="86.80554962158203" height="17.708332061767578" transform="scale(1,1) translate(0,0)" xml:space="preserve"><tspan xml:space="preserve" text-rendering="optimizeSpeed" font-size="16.666666666666668" font-weight="bold" font-style="normal" fill="#333333" x="0" text-anchor="start" y="14.583" textLength="86.80554962158203" style="font-family: Arial, 'Helvetica Neue', Helvetica, sans-serif;">Utilizatorul</tspan></text></g></g><g width="0" height="785" transform="scale(1,1) translate(465.833,163.708)"><g transform="scale(1,1) translate(0,0)" fill="#7F7F7F" stroke="#7F7F7F" stroke-opacity="1"><path d="M0,0 L0,785" fill="none" stroke-width="2" stroke-dasharray="6,2"/><g><g stroke-dasharray="none"><path d="M-2,-2L2,-2L2,2L-2,2z" stroke-width="0" fill="none"/></g></g></g></g><g width="0" height="785" transform="scale(1,1) translate(172.333,163.708)"><g transform="scale(1,1) translate(0,0)" fill="#7F7F7F" stroke="#7F7F7F" stroke-opacity="1"><path d="M0,0 L0,785" fill="none" stroke-width="2" stroke-dasharray="6,2"/><g><g stroke-dasharray="none"><path d="M-2,-2L2,-2L2,2L-2,2z" stroke-width="0" fill="none"/></g></g></g></g><g width="531.5" height="25" transform="scale(1,1) translate(117.667,54.167)"><g stroke="#000000" opacity="1" stroke-width="0" stroke-dasharray="none" width="531.5" height="25" transform="scale(1,1) translate(0,0)" fill="none" stroke-opacity="1"><rect width="531.5" height="25"/></g><g width="531.5" height="25" transform="scale(1,1) translate(0,0)"><text width="531.5" height="24.999998092651367" transform="scale(1,1) translate(0,9.5367431640625e-7)" xml:space="preserve"><tspan xml:space="preserve" text-rendering="optimizeSpeed" font-size="22.22222222222222" font-weight="normal" font-style="normal" fill="#333333" x="28.141" text-anchor="start" y="19.792" textLength="39.47593307495117" style="font-family: Arial, 'Helvetica Neue', Helvetica, sans-serif;">Uml</tspan><tspan xml:space="preserve" text-rendering="optimizeSpeed" font-size="22.22222222222222" font-weight="normal" font-style="normal" fill="#333333" x="67.617" text-anchor="start" y="19.792" textLength="178.9539031982422" style="font-family: Arial, 'Helvetica Neue', Helvetica, sans-serif;"> Activity Diagram- </tspan><tspan xml:space="preserve" text-rendering="optimizeSpeed" font-size="22.22222222222222" font-weight="normal" font-style="normal" fill="#333333" x="246.571" text-anchor="start" y="19.792" textLength="114.80555725097656" style="font-family: Arial, 'Helvetica Neue', Helvetica, sans-serif;">Prelucrarea</tspan><tspan xml:space="preserve" text-rendering="optimizeSpeed" font-size="22.22222222222222" font-weight="normal" font-style="normal" fill="#333333" x="361.376" text-anchor="start" y="19.792" textLength="6.170820236206055" style="font-family: Arial, 'Helvetica Neue', Helvetica, sans-serif;"> </tspan><tspan xml:space="preserve" text-rendering="optimizeSpeed" font-size="22.22222222222222" font-weight="normal" font-style="normal" fill="#333333" x="367.547" text-anchor="start" y="19.792" textLength="67.91162109375" style="font-family: Arial, 'Helvetica Neue', Helvetica, sans-serif;">datelor</tspan><tspan xml:space="preserve" text-rendering="optimizeSpeed" font-size="22.22222222222222" font-weight="normal" font-style="normal" fill="#333333" x="435.459" text-anchor="start" y="19.792" textLength="29.628629684448242" style="font-family: Arial, 'Helvetica Neue', Helvetica, sans-serif;"> in </tspan><tspan xml:space="preserve" text-rendering="optimizeSpeed" font-size="22.22222222222222" font-weight="normal" font-style="normal" fill="#333333" x="465.087" text-anchor="start" y="19.792" textLength="38.272132873535156" style="font-family: Arial, 'Helvetica Neue', Helvetica, sans-serif;">graf</tspan></text></g></g><g width="0" height="498.006" transform="scale(1,1) translate(172.333,200.5)"><g fill="#7F7F7F" stroke="#7F7F7F" stroke-opacity="1" transform="scale(1,1) translate(0,0)"><path fill="none" stroke-width="2" stroke-dasharray="none" d="M0,0 L0,0 M0,0 L0,0 M0,498.006 L0,498.006 M0,0 L0,0 M0,20 L0,70 M0,144.639 L0,194.639 M0,202.639 L0,252.639 M0,331.006 L0,490.006"/><g><g stroke-dasharray="none"><path d="M8,54L0,70L-8,54" stroke-width="1" fill="none"/></g><g stroke-dasharray="none"><path d="M8,178.639L0,194.639L-8,178.639" stroke-width="1" fill="none"/></g><g stroke-dasharray="none"><path d="M8,236.639L0,252.639L-8,236.639" stroke-width="1" fill="none"/></g><g stroke-dasharray="none"><path d="M8,474.006L0,490.006L-8,474.006" stroke-width="1" fill="none"/></g></g></g></g><g width="153.45" height="77.368" transform="scale(1,1) translate(260.858,764.466)"><g transform="scale(1,1) translate(0,0)" stroke="#7F7F7F" fill="url(#0261359a-20b8-4d27-8e73-52e6d4fc2484)" stroke-opacity="1" filter="url(#184d402e-6c6d-4d13-8ca9-b8eca1072f8f)"><linearGradient id="0261359a-20b8-4d27-8e73-52e6d4fc2484" x1="76.72493945289388" y1="0" x2="76.72493945289388" y2="77.36752688549767" gradientUnits="userSpaceOnUse"><stop offset="0%" style="stop-color:#92B0CF;stop-opacity:1;"/><stop offset="100%" style="stop-color:#8CA8CD;stop-opacity:1;"/></linearGradient><path d="M38,0 L29.45,0.974 L25.987,1.949 L23.385,2.923 L21.236,3.897 L19.385,4.872 L17.748,5.846 L16.278,6.821 L14.942,7.795 L13.719,8.769 L12.592,9.744 L11.548,10.718 L10.579,11.692 L9.676,12.667 L8.834,13.641 L8.047,14.615 L7.312,15.59 L6.623,16.564 L5.979,17.538 L5.377,18.513 L4.815,19.487 L4.289,20.462 L3.8,21.436 L3.345,22.41 L2.923,23.385 L2.533,24.359 L2.173,25.333 L1.844,26.308 L1.543,27.282 L1.27,28.256 L1.026,29.231 L0.808,30.205 L0.617,31.179 L0.452,32.154 L0.314,33.128 L0.2,34.103 L0.113,35.077 L0.05,36.051 L0.012,37.026 L0,38 L0,39.368 L0.012,40.342 L0.05,41.316 L0.113,42.291 L0.2,43.265 L0.314,44.239 L0.452,45.214 L0.617,46.188 L0.808,47.162 L1.026,48.137 L1.27,49.111 L1.543,50.085 L1.844,51.06 L2.173,52.034 L2.533,53.009 L2.923,53.983 L3.345,54.957 L3.8,55.932 L4.289,56.906 L4.815,57.88 L5.377,58.855 L5.979,59.829 L6.623,60.803 L7.312,61.778 L8.047,62.752 L8.834,63.727 L9.676,64.701 L10.579,65.675 L11.548,66.65 L12.592,67.624 L13.719,68.598 L14.942,69.573 L16.278,70.547 L17.748,71.521 L19.385,72.496 L21.236,73.47 L23.385,74.444 L25.987,75.419 L29.45,76.393 L38,77.368 L115.45,77.368 L124,76.393 L127.463,75.419 L130.065,74.444 L132.213,73.47 L134.065,72.496 L135.702,71.521 L137.172,70.547 L138.507,69.573 L139.731,68.598 L140.858,67.624 L141.902,66.65 L142.871,65.675 L143.773,64.701 L144.616,63.727 L145.403,62.752 L146.138,61.778 L146.827,60.803 L147.471,59.829 L148.073,58.855 L148.635,57.88 L149.16,56.906 L149.65,55.932 L150.105,54.957 L150.527,53.983 L150.917,53.009 L151.277,52.034 L151.606,51.06 L151.907,50.085 L152.179,49.111 L152.424,48.137 L152.642,47.162 L152.833,46.188 L152.997,45.214 L153.136,44.239 L153.249,43.265 L153.337,42.291 L153.4,41.316 L153.437,40.342 L153.45,39.368 L153.45,38 L153.437,37.026 L153.4,36.051 L153.337,35.077 L153.249,34.103 L153.136,33.128 L152.997,32.154 L152.833,31.179 L152.642,30.205 L152.424,29.231 L152.179,28.256 L151.907,27.282 L151.606,26.308 L151.277,25.333 L150.917,24.359 L150.527,23.385 L150.105,22.41 L149.65,21.436 L149.16,20.462 L148.635,19.487 L148.073,18.513 L147.471,17.538 L146.827,16.564 L146.138,15.59 L145.403,14.615 L144.616,13.641 L143.773,12.667 L142.871,11.692 L141.902,10.718 L140.858,9.744 L139.731,8.769 L138.507,7.795 L137.172,6.821 L135.702,5.846 L134.065,4.872 L132.213,3.897 L130.065,2.923 L127.463,1.949 L124,0.974 L115.45,0 L38,0 z" stroke-width="1" stroke-dasharray="none"/></g><g width="103.79834328936127" height="49.999996185302734" transform="scale(1,1) translate(24.826,13.684)"><text width="103.79834328936127" height="49.999996185302734" transform="scale(1,1) translate(0,0)" xml:space="preserve"><tspan xml:space="preserve" text-rendering="optimizeSpeed" font-size="11.11111111111111" font-weight="normal" font-style="normal" fill="#333333" x="8.496" text-anchor="start" y="10.417" textLength="15.046296119689941" style="font-family: Arial, 'Helvetica Neue', Helvetica, sans-serif;">se </tspan><tspan xml:space="preserve" text-rendering="optimizeSpeed" font-size="11.11111111111111" font-weight="normal" font-style="normal" fill="#333333" x="23.543" text-anchor="start" y="10.417" textLength="34.72222137451172" style="font-family: Arial, 'Helvetica Neue', Helvetica, sans-serif;">adauga</tspan><tspan xml:space="preserve" text-rendering="optimizeSpeed" font-size="11.11111111111111" font-weight="normal" font-style="normal" fill="#333333" x="58.265" text-anchor="start" y="10.417" textLength="15.046296119689941" style="font-family: Arial, 'Helvetica Neue', Helvetica, sans-serif;"> in </tspan><tspan xml:space="preserve" text-rendering="optimizeSpeed" font-size="11.11111111111111" font-weight="normal" font-style="normal" fill="#333333" x="73.311" text-anchor="start" y="10.417" textLength="18.518518447875977" style="font-family: Arial, 'Helvetica Neue', Helvetica, sans-serif;">graf</tspan><tspan xml:space="preserve" text-rendering="optimizeSpeed" font-size="11.11111111111111" font-weight="normal" font-style="normal" fill="#333333" x="91.83" text-anchor="start" y="10.417" textLength="3.472222089767456" style="font-family: Arial, 'Helvetica Neue', Helvetica, sans-serif;"> </tspan><tspan xml:space="preserve" text-rendering="optimizeSpeed" font-size="11.11111111111111" font-weight="normal" font-style="normal" fill="#333333" x="10.233" text-anchor="start" y="22.917" textLength="28.935184478759766" style="font-family: Arial, 'Helvetica Neue', Helvetica, sans-serif;">datele</tspan><tspan xml:space="preserve" text-rendering="optimizeSpeed" font-size="11.11111111111111" font-weight="normal" font-style="normal" fill="#333333" x="39.168" text-anchor="start" y="22.917" textLength="3.472222089767456" style="font-family: Arial, 'Helvetica Neue', Helvetica, sans-serif;"> </tspan><tspan xml:space="preserve" text-rendering="optimizeSpeed" font-size="11.11111111111111" font-weight="normal" font-style="normal" fill="#333333" x="42.64" text-anchor="start" y="22.917" textLength="43.98147964477539" style="font-family: Arial, 'Helvetica Neue', Helvetica, sans-serif;">modelate</tspan><tspan xml:space="preserve" text-rendering="optimizeSpeed" font-size="11.11111111111111" font-weight="normal" font-style="normal" fill="#333333" x="86.621" text-anchor="start" y="22.917" textLength="6.944444179534912" style="font-family: Arial, 'Helvetica Neue', Helvetica, sans-serif;">, </tspan><tspan xml:space="preserve" text-rendering="optimizeSpeed" font-size="11.11111111111111" font-weight="normal" font-style="normal" fill="#333333" x="2.709" text-anchor="start" y="35.417" textLength="38.19444274902344" style="font-family: Arial, 'Helvetica Neue', Helvetica, sans-serif;">creandu</tspan><tspan xml:space="preserve" text-rendering="optimizeSpeed" font-size="11.11111111111111" font-weight="normal" font-style="normal" fill="#333333" x="40.904" text-anchor="start" y="35.417" textLength="18.518518447875977" style="font-family: Arial, 'Helvetica Neue', Helvetica, sans-serif;">-se </tspan><tspan xml:space="preserve" text-rendering="optimizeSpeed" font-size="11.11111111111111" font-weight="normal" font-style="normal" fill="#333333" x="59.422" text-anchor="start" y="35.417" textLength="11.574073791503906" style="font-family: Arial, 'Helvetica Neue', Helvetica, sans-serif;">pe</tspan><tspan xml:space="preserve" text-rendering="optimizeSpeed" font-size="11.11111111111111" font-weight="normal" font-style="normal" fill="#333333" x="70.996" text-anchor="start" y="35.417" textLength="3.472222089767456" style="font-family: Arial, 'Helvetica Neue', Helvetica, sans-serif;"> </tspan><tspan xml:space="preserve" text-rendering="optimizeSpeed" font-size="11.11111111111111" font-weight="normal" font-style="normal" fill="#333333" x="74.469" text-anchor="start" y="35.417" textLength="23.148147583007812" style="font-family: Arial, 'Helvetica Neue', Helvetica, sans-serif;">baza</tspan><tspan xml:space="preserve" text-rendering="optimizeSpeed" font-size="11.11111111111111" font-weight="normal" font-style="normal" fill="#333333" x="97.617" text-anchor="start" y="35.417" textLength="3.472222089767456" style="font-family: Arial, 'Helvetica Neue', Helvetica, sans-serif;"> </tspan><tspan xml:space="preserve" text-rendering="optimizeSpeed" font-size="11.11111111111111" font-weight="normal" font-style="normal" fill="#333333" x="14.283" text-anchor="start" y="47.917" textLength="45.13888931274414" style="font-family: Arial, 'Helvetica Neue', Helvetica, sans-serif;">modelului</tspan><tspan xml:space="preserve" text-rendering="optimizeSpeed" font-size="11.11111111111111" font-weight="normal" font-style="normal" fill="#333333" x="59.422" text-anchor="start" y="47.917" textLength="3.472222089767456" style="font-family: Arial, 'Helvetica Neue', Helvetica, sans-serif;"> </tspan><tspan xml:space="preserve" text-rendering="optimizeSpeed" font-size="11.11111111111111" font-weight="normal" font-style="normal" fill="#333333" x="62.895" text-anchor="start" y="47.917" textLength="26.62036895751953" style="font-family: Arial, 'Helvetica Neue', Helvetica, sans-serif;">graful</tspan></text></g></g><g width="168.5" height="7" transform="scale(1,1) translate(88.167,690.506)"><g transform="scale(1,1) translate(0,0)" stroke="#7F7F7F" fill="url(#207569f1-5f0a-4b45-a435-44a15e4dc559)" stroke-opacity="1" filter="url(#7bb9da86-bc63-4fdf-84ef-916fe5d4a9be)"><linearGradient id="207569f1-5f0a-4b45-a435-44a15e4dc559" x1="84.25" y1="0" x2="84.25" y2="7" gradientUnits="userSpaceOnUse"><stop offset="0%" style="stop-color:#CDC29C;stop-opacity:1;"/><stop offset="100%" style="stop-color:#CBBB85;stop-opacity:1;"/></linearGradient><path d="M0,0.698 a0.698,0.698 0 0,1 0.698,-0.698 l167.103,0 a0.698,0.698 0 0,1 0.698,0.698 l0,5.603 a0.698,0.698 0 0,1 -0.698,0.698 l-167.103,0 a0.698,0.698 0 0,1 -0.698,-0.698 z" stroke-width="1" stroke-dasharray="none"/></g></g><g width="155.001" height="77.368" transform="scale(1,1) translate(94.916,453.139)"><g transform="scale(1,1) translate(0,0)" stroke="#7F7F7F" fill="url(#f6305768-86ed-423d-9016-2f8d7e96ee64)" stroke-opacity="1" filter="url(#184d402e-6c6d-4d13-8ca9-b8eca1072f8f)"><linearGradient id="f6305768-86ed-423d-9016-2f8d7e96ee64" x1="77.50046078048993" y1="0" x2="77.50046078048993" y2="77.36752688549767" gradientUnits="userSpaceOnUse"><stop offset="0%" style="stop-color:#92B0CF;stop-opacity:1;"/><stop offset="100%" style="stop-color:#8CA8CD;stop-opacity:1;"/></linearGradient><path d="M38,0 L29.45,0.974 L25.987,1.949 L23.385,2.923 L21.236,3.897 L19.385,4.872 L17.748,5.846 L16.278,6.821 L14.942,7.795 L13.719,8.769 L12.592,9.744 L11.548,10.718 L10.579,11.692 L9.676,12.667 L8.834,13.641 L8.047,14.615 L7.312,15.59 L6.623,16.564 L5.979,17.538 L5.377,18.513 L4.815,19.487 L4.289,20.462 L3.8,21.436 L3.345,22.41 L2.923,23.385 L2.533,24.359 L2.173,25.333 L1.844,26.308 L1.543,27.282 L1.27,28.256 L1.026,29.231 L0.808,30.205 L0.617,31.179 L0.452,32.154 L0.314,33.128 L0.2,34.103 L0.113,35.077 L0.05,36.051 L0.012,37.026 L0,38 L0,39.368 L0.012,40.342 L0.05,41.316 L0.113,42.291 L0.2,43.265 L0.314,44.239 L0.452,45.214 L0.617,46.188 L0.808,47.162 L1.026,48.137 L1.27,49.111 L1.543,50.085 L1.844,51.06 L2.173,52.034 L2.533,53.009 L2.923,53.983 L3.345,54.957 L3.8,55.932 L4.289,56.906 L4.815,57.88 L5.377,58.855 L5.979,59.829 L6.623,60.803 L7.312,61.778 L8.047,62.752 L8.834,63.727 L9.676,64.701 L10.579,65.675 L11.548,66.65 L12.592,67.624 L13.719,68.598 L14.942,69.573 L16.278,70.547 L17.748,71.521 L19.385,72.496 L21.236,73.47 L23.385,74.444 L25.987,75.419 L29.45,76.393 L38,77.368 L117.001,77.368 L125.551,76.393 L129.014,75.419 L131.616,74.444 L133.764,73.47 L135.616,72.496 L137.253,71.521 L138.723,70.547 L140.058,69.573 L141.282,68.598 L142.409,67.624 L143.453,66.65 L144.422,65.675 L145.324,64.701 L146.167,63.727 L146.954,62.752 L147.689,61.778 L148.378,60.803 L149.022,59.829 L149.624,58.855 L150.186,57.88 L150.711,56.906 L151.201,55.932 L151.656,54.957 L152.078,53.983 L152.468,53.009 L152.828,52.034 L153.157,51.06 L153.458,50.085 L153.731,49.111 L153.975,48.137 L154.193,47.162 L154.384,46.188 L154.549,45.214 L154.687,44.239 L154.801,43.265 L154.888,42.291 L154.951,41.316 L154.988,40.342 L155.001,39.368 L155.001,38 L154.988,37.026 L154.951,36.051 L154.888,35.077 L154.801,34.103 L154.687,33.128 L154.549,32.154 L154.384,31.179 L154.193,30.205 L153.975,29.231 L153.731,28.256 L153.458,27.282 L153.157,26.308 L152.828,25.333 L152.468,24.359 L152.078,23.385 L151.656,22.41 L151.201,21.436 L150.711,20.462 L150.186,19.487 L149.624,18.513 L149.022,17.538 L148.378,16.564 L147.689,15.59 L146.954,14.615 L146.167,13.641 L145.324,12.667 L144.422,11.692 L143.453,10.718 L142.409,9.744 L141.282,8.769 L140.058,7.795 L138.723,6.821 L137.253,5.846 L135.616,4.872 L133.764,3.897 L131.616,2.923 L129.014,1.949 L125.551,0.974 L117.001,0 L38,0 z" stroke-width="1" stroke-dasharray="none"/></g><g width="104.8950960700189" height="49.999996185302734" transform="scale(1,1) translate(25.053,13.684)"><text width="104.8950960700189" height="49.999996185302734" transform="scale(1,1) translate(0,0)" xml:space="preserve"><tspan xml:space="preserve" text-rendering="optimizeSpeed" font-size="11.11111111111111" font-weight="normal" font-style="normal" fill="#333333" x="0.943" text-anchor="start" y="10.417" textLength="43.98147964477539" style="font-family: Arial, 'Helvetica Neue', Helvetica, sans-serif;">Creearea</tspan><tspan xml:space="preserve" text-rendering="optimizeSpeed" font-size="11.11111111111111" font-weight="normal" font-style="normal" fill="#333333" x="44.924" text-anchor="start" y="10.417" textLength="3.472222089767456" style="font-family: Arial, 'Helvetica Neue', Helvetica, sans-serif;"> </tspan><tspan xml:space="preserve" text-rendering="optimizeSpeed" font-size="11.11111111111111" font-weight="normal" font-style="normal" fill="#333333" x="48.397" text-anchor="start" y="10.417" textLength="19.675926208496094" style="font-family: Arial, 'Helvetica Neue', Helvetica, sans-serif;">unui</tspan><tspan xml:space="preserve" text-rendering="optimizeSpeed" font-size="11.11111111111111" font-weight="normal" font-style="normal" fill="#333333" x="68.073" text-anchor="start" y="10.417" textLength="35.8796272277832" style="font-family: Arial, 'Helvetica Neue', Helvetica, sans-serif;"> model </tspan><tspan xml:space="preserve" text-rendering="optimizeSpeed" font-size="11.11111111111111" font-weight="normal" font-style="normal" fill="#333333" x="17.725" text-anchor="start" y="22.917" textLength="23.148147583007812" style="font-family: Arial, 'Helvetica Neue', Helvetica, sans-serif;">OOP</tspan><tspan xml:space="preserve" text-rendering="optimizeSpeed" font-size="11.11111111111111" font-weight="normal" font-style="normal" fill="#333333" x="40.873" text-anchor="start" y="22.917" textLength="3.472222089767456" style="font-family: Arial, 'Helvetica Neue', Helvetica, sans-serif;"> </tspan><tspan xml:space="preserve" text-rendering="optimizeSpeed" font-size="11.11111111111111" font-weight="normal" font-style="normal" fill="#333333" x="44.346" text-anchor="start" y="22.917" textLength="30.092592239379883" style="font-family: Arial, 'Helvetica Neue', Helvetica, sans-serif;">pentru</tspan><tspan xml:space="preserve" text-rendering="optimizeSpeed" font-size="11.11111111111111" font-weight="normal" font-style="normal" fill="#333333" x="74.438" text-anchor="start" y="22.917" textLength="12.731481552124023" style="font-family: Arial, 'Helvetica Neue', Helvetica, sans-serif;"> a </tspan><tspan xml:space="preserve" text-rendering="optimizeSpeed" font-size="11.11111111111111" font-weight="normal" font-style="normal" fill="#333333" x="13.096" text-anchor="start" y="35.417" textLength="42.824073791503906" style="font-family: Arial, 'Helvetica Neue', Helvetica, sans-serif;">manipula</tspan><tspan xml:space="preserve" text-rendering="optimizeSpeed" font-size="11.11111111111111" font-weight="normal" font-style="normal" fill="#333333" x="55.92" text-anchor="start" y="35.417" textLength="3.472222089767456" style="font-family: Arial, 'Helvetica Neue', Helvetica, sans-serif;"> </tspan><tspan xml:space="preserve" text-rendering="optimizeSpeed" font-size="11.11111111111111" font-weight="normal" font-style="normal" fill="#333333" x="59.392" text-anchor="start" y="35.417" textLength="28.935184478759766" style="font-family: Arial, 'Helvetica Neue', Helvetica, sans-serif;">datele</tspan><tspan xml:space="preserve" text-rendering="optimizeSpeed" font-size="11.11111111111111" font-weight="normal" font-style="normal" fill="#333333" x="88.327" text-anchor="start" y="35.417" textLength="3.472222089767456" style="font-family: Arial, 'Helvetica Neue', Helvetica, sans-serif;"> </tspan><tspan xml:space="preserve" text-rendering="optimizeSpeed" font-size="11.11111111111111" font-weight="normal" font-style="normal" fill="#333333" x="34.508" text-anchor="start" y="47.917" textLength="35.8796272277832" style="font-family: Arial, 'Helvetica Neue', Helvetica, sans-serif;">primute</tspan></text></g></g><g width="168.5" height="7" transform="scale(1,1) translate(88.167,395.139)"><g transform="scale(1,1) translate(0,0)" stroke="#7F7F7F" fill="url(#3237843e-494f-467d-b52a-325cef6d9f46)" stroke-opacity="1" filter="url(#7bb9da86-bc63-4fdf-84ef-916fe5d4a9be)"><linearGradient id="3237843e-494f-467d-b52a-325cef6d9f46" x1="84.25" y1="0" x2="84.25" y2="7" gradientUnits="userSpaceOnUse"><stop offset="0%" style="stop-color:#CDC29C;stop-opacity:1;"/><stop offset="100%" style="stop-color:#CBBB85;stop-opacity:1;"/></linearGradient><path d="M0,0.698 a0.698,0.698 0 0,1 0.698,-0.698 l167.103,0 a0.698,0.698 0 0,1 0.698,0.698 l0,5.603 a0.698,0.698 0 0,1 -0.698,0.698 l-167.103,0 a0.698,0.698 0 0,1 -0.698,-0.698 z" stroke-width="1" stroke-dasharray="none"/></g></g><g width="146.054" height="73.639" transform="scale(1,1) translate(99.39,270.5)"><g transform="scale(1,1) translate(0,0)" stroke="#7F7F7F" fill="url(#104f73e0-cd52-4169-94ab-62a6d1806dc6)" stroke-opacity="1" filter="url(#184d402e-6c6d-4d13-8ca9-b8eca1072f8f)"><linearGradient id="104f73e0-cd52-4169-94ab-62a6d1806dc6" x1="73.02702812893014" y1="0" x2="73.02702812893014" y2="73.63864477992621" gradientUnits="userSpaceOnUse"><stop offset="0%" style="stop-color:#92B0CF;stop-opacity:1;"/><stop offset="100%" style="stop-color:#8CA8CD;stop-opacity:1;"/></linearGradient><path d="M36,0 L27.9,0.923 L24.62,1.846 L22.154,2.769 L20.119,3.692 L18.365,4.615 L16.814,5.538 L15.421,6.462 L14.156,7.385 L12.997,8.308 L11.929,9.231 L10.941,10.154 L10.022,11.077 L9.167,12 L8.369,12.923 L7.624,13.846 L6.927,14.769 L6.275,15.692 L5.665,16.615 L5.094,17.538 L4.561,18.462 L4.064,19.385 L3.6,20.308 L3.169,21.231 L2.769,22.154 L2.399,23.077 L2.059,24 L1.747,24.923 L1.462,25.846 L1.204,26.769 L0.972,27.692 L0.766,28.615 L0.585,29.538 L0.429,30.462 L0.297,31.385 L0.19,32.308 L0.107,33.231 L0.047,34.154 L0.012,35.077 L0,36 L0,37.639 L0.012,38.562 L0.047,39.485 L0.107,40.408 L0.19,41.331 L0.297,42.254 L0.429,43.177 L0.585,44.1 L0.766,45.023 L0.972,45.946 L1.204,46.869 L1.462,47.792 L1.747,48.716 L2.059,49.639 L2.399,50.562 L2.769,51.485 L3.169,52.408 L3.6,53.331 L4.064,54.254 L4.561,55.177 L5.094,56.1 L5.665,57.023 L6.275,57.946 L6.927,58.869 L7.624,59.792 L8.369,60.716 L9.167,61.639 L10.022,62.562 L10.941,63.485 L11.929,64.408 L12.997,65.331 L14.156,66.254 L15.421,67.177 L16.814,68.1 L18.365,69.023 L20.119,69.946 L22.154,70.869 L24.62,71.792 L27.9,72.716 L36,73.639 L110.054,73.639 L118.154,72.716 L121.435,71.792 L123.9,70.869 L125.935,69.946 L127.689,69.023 L129.24,68.1 L130.633,67.177 L131.898,66.254 L133.057,65.331 L134.125,64.408 L135.114,63.485 L136.032,62.562 L136.887,61.639 L137.685,60.716 L138.43,59.792 L139.127,58.869 L139.779,57.946 L140.389,57.023 L140.96,56.1 L141.493,55.177 L141.99,54.254 L142.454,53.331 L142.885,52.408 L143.285,51.485 L143.655,50.562 L143.995,49.639 L144.308,48.716 L144.592,47.792 L144.851,46.869 L145.082,45.946 L145.289,45.023 L145.469,44.1 L145.625,43.177 L145.757,42.254 L145.864,41.331 L145.947,40.408 L146.007,39.485 L146.042,38.562 L146.054,37.639 L146.054,36 L146.042,35.077 L146.007,34.154 L145.947,33.231 L145.864,32.308 L145.757,31.385 L145.625,30.462 L145.469,29.538 L145.289,28.615 L145.082,27.692 L144.851,26.769 L144.592,25.846 L144.308,24.923 L143.995,24 L143.655,23.077 L143.285,22.154 L142.885,21.231 L142.454,20.308 L141.99,19.385 L141.493,18.462 L140.96,17.538 L140.389,16.615 L139.779,15.692 L139.127,14.769 L138.43,13.846 L137.685,12.923 L136.887,12 L136.032,11.077 L135.114,10.154 L134.125,9.231 L133.057,8.308 L131.898,7.385 L130.633,6.462 L129.24,5.538 L127.689,4.615 L125.935,3.692 L123.9,2.769 L121.435,1.846 L118.154,0.923 L110.054,0 L36,0 z" stroke-width="1" stroke-dasharray="none"/></g><g width="98.56870693654255" height="47.36327835917472" transform="scale(1,1) translate(23.743,13.138)"><text width="98.56870693654255" height="46.87499713897705" transform="scale(1,1) translate(0,0.24414061009883525)" xml:space="preserve"><tspan xml:space="preserve" text-rendering="optimizeSpeed" font-size="13.88888888888889" font-weight="normal" font-style="normal" fill="#333333" x="0.095" text-anchor="start" y="12.5" textLength="55.5555534362793" style="font-family: Arial, 'Helvetica Neue', Helvetica, sans-serif;">Primeste</tspan><tspan xml:space="preserve" text-rendering="optimizeSpeed" font-size="13.88888888888889" font-weight="normal" font-style="normal" fill="#333333" x="55.65" text-anchor="start" y="12.5" textLength="3.472222089767456" style="font-family: Arial, 'Helvetica Neue', Helvetica, sans-serif;"> </tspan><tspan xml:space="preserve" text-rendering="optimizeSpeed" font-size="13.88888888888889" font-weight="normal" font-style="normal" fill="#333333" x="59.122" text-anchor="start" y="12.5" textLength="39.35185241699219" style="font-family: Arial, 'Helvetica Neue', Helvetica, sans-serif;">datele</tspan><tspan xml:space="preserve" text-rendering="optimizeSpeed" font-size="13.88888888888889" font-weight="normal" font-style="normal" fill="#333333" x="9.354" text-anchor="start" y="28.125" textLength="15.046296119689941" style="font-family: Arial, 'Helvetica Neue', Helvetica, sans-serif;">ce</tspan><tspan xml:space="preserve" text-rendering="optimizeSpeed" font-size="13.88888888888889" font-weight="normal" font-style="normal" fill="#333333" x="24.4" text-anchor="start" y="28.125" textLength="3.472222089767456" style="font-family: Arial, 'Helvetica Neue', Helvetica, sans-serif;"> </tspan><tspan xml:space="preserve" text-rendering="optimizeSpeed" font-size="13.88888888888889" font-weight="normal" font-style="normal" fill="#333333" x="27.872" text-anchor="start" y="28.125" textLength="57.87036895751953" style="font-family: Arial, 'Helvetica Neue', Helvetica, sans-serif;">trebuiesc</tspan><tspan xml:space="preserve" text-rendering="optimizeSpeed" font-size="13.88888888888889" font-weight="normal" font-style="normal" fill="#333333" x="85.743" text-anchor="start" y="28.125" textLength="3.472222089767456" style="font-family: Arial, 'Helvetica Neue', Helvetica, sans-serif;"> </tspan><tspan xml:space="preserve" text-rendering="optimizeSpeed" font-size="13.88888888888889" font-weight="normal" font-style="normal" fill="#333333" x="18.034" text-anchor="start" y="43.75" textLength="62.5" style="font-family: Arial, 'Helvetica Neue', Helvetica, sans-serif;">procesate</tspan></text></g></g><g width="19" height="19" transform="scale(1,1) translate(162.833,200.5)"><g width="19" height="19" transform="scale(1,1) translate(0,0)" stroke="#7F7F7F" stroke-width="1" stroke-dasharray="none" fill="#000000" fill-opacity="1" stroke-opacity="1" filter="url(#333b4262-80a8-4344-b141-66a391390434)"><ellipse rx="9.5" ry="9.5" cx="9.5" cy="9.5"/></g></g><g width="145.684" height="0" transform="scale(1,1) translate(281.488,480.315)"><g fill="#7F7F7F" stroke="#7F7F7F" stroke-opacity="1" transform="scale(1,1) translate(0,0)"><path fill="none" stroke-width="2" stroke-dasharray="none" d="M0,0 L0,0 M0,0 L0,0 M145.684,0 L145.684,0 M0,0 L0,0"/><g><g stroke-dasharray="none"><path d="M0,0L-16,0L-16,-16L0,-16z" stroke-width="0" fill="none"/></g></g></g></g><g width="164.339" height="0" transform="scale(1,1) translate(434.219,622.047)"><g fill="#545454" stroke="#545454" stroke-opacity="1" transform="scale(1,1) translate(0,0)"><path fill="none" stroke-width="1" stroke-dasharray="none" d="M0,0 L0,0 M0,0 L0,0 M164.339,0 L164.339,0 M0,0 L0,0"/><g><g stroke-dasharray="none"><path d="M0,0L-14,0L-14,-14L0,-14z" stroke-width="0" fill="none"/></g></g></g></g><g width="163.339" height="77.368" transform="scale(1,1) translate(434.219,583.363)"><g transform="scale(1,1) translate(0,0)" stroke="#7F7F7F" fill="url(#eed93c0c-10d4-47e2-8464-376296fff9d6)" stroke-opacity="1" filter="url(#184d402e-6c6d-4d13-8ca9-b8eca1072f8f)"><linearGradient id="eed93c0c-10d4-47e2-8464-376296fff9d6" x1="81.66955631068981" y1="0" x2="81.66955631068981" y2="77.36752688549767" gradientUnits="userSpaceOnUse"><stop offset="0%" style="stop-color:#92B0CF;stop-opacity:1;"/><stop offset="100%" style="stop-color:#8CA8CD;stop-opacity:1;"/></linearGradient><path d="M38,0 L29.45,0.974 L25.987,1.949 L23.385,2.923 L21.236,3.897 L19.385,4.872 L17.748,5.846 L16.278,6.821 L14.942,7.795 L13.719,8.769 L12.592,9.744 L11.548,10.718 L10.579,11.692 L9.676,12.667 L8.834,13.641 L8.047,14.615 L7.312,15.59 L6.623,16.564 L5.979,17.538 L5.377,18.513 L4.815,19.487 L4.289,20.462 L3.8,21.436 L3.345,22.41 L2.923,23.385 L2.533,24.359 L2.173,25.333 L1.844,26.308 L1.543,27.282 L1.27,28.256 L1.026,29.231 L0.808,30.205 L0.617,31.179 L0.452,32.154 L0.314,33.128 L0.2,34.103 L0.113,35.077 L0.05,36.051 L0.012,37.026 L0,38 L0,39.368 L0.012,40.342 L0.05,41.316 L0.113,42.291 L0.2,43.265 L0.314,44.239 L0.452,45.214 L0.617,46.188 L0.808,47.162 L1.026,48.137 L1.27,49.111 L1.543,50.085 L1.844,51.06 L2.173,52.034 L2.533,53.009 L2.923,53.983 L3.345,54.957 L3.8,55.932 L4.289,56.906 L4.815,57.88 L5.377,58.855 L5.979,59.829 L6.623,60.803 L7.312,61.778 L8.047,62.752 L8.834,63.727 L9.676,64.701 L10.579,65.675 L11.548,66.65 L12.592,67.624 L13.719,68.598 L14.942,69.573 L16.278,70.547 L17.748,71.521 L19.385,72.496 L21.236,73.47 L23.385,74.444 L25.987,75.419 L29.45,76.393 L38,77.368 L125.339,77.368 L133.889,76.393 L137.352,75.419 L139.954,74.444 L142.103,73.47 L143.954,72.496 L145.591,71.521 L147.061,70.547 L148.397,69.573 L149.62,68.598 L150.747,67.624 L151.791,66.65 L152.76,65.675 L153.663,64.701 L154.505,63.727 L155.292,62.752 L156.028,61.778 L156.716,60.803 L157.36,59.829 L157.962,58.855 L158.525,57.88 L159.05,56.906 L159.539,55.932 L159.994,54.957 L160.416,53.983 L160.806,53.009 L161.166,52.034 L161.496,51.06 L161.796,50.085 L162.069,49.111 L162.313,48.137 L162.531,47.162 L162.722,46.188 L162.887,45.214 L163.026,44.239 L163.139,43.265 L163.227,42.291 L163.289,41.316 L163.327,40.342 L163.339,39.368 L163.339,38 L163.327,37.026 L163.289,36.051 L163.227,35.077 L163.139,34.103 L163.026,33.128 L162.887,32.154 L162.722,31.179 L162.531,30.205 L162.313,29.231 L162.069,28.256 L161.796,27.282 L161.496,26.308 L161.166,25.333 L160.806,24.359 L160.416,23.385 L159.994,22.41 L159.539,21.436 L159.05,20.462 L158.525,19.487 L157.962,18.513 L157.36,17.538 L156.716,16.564 L156.028,15.59 L155.292,14.615 L154.505,13.641 L153.663,12.667 L152.76,11.692 L151.791,10.718 L150.747,9.744 L149.62,8.769 L148.397,7.795 L147.061,6.821 L145.591,5.846 L143.954,4.872 L142.103,3.897 L139.954,2.923 L137.352,1.949 L133.889,0.974 L125.339,0 L38,0 z" stroke-width="1" stroke-dasharray="none"/></g><g width="110.79108751843933" height="49.999996185302734" transform="scale(1,1) translate(26.274,13.684)"><text width="110.79108751843933" height="49.999996185302734" transform="scale(1,1) translate(0,0)" xml:space="preserve"><tspan xml:space="preserve" text-rendering="optimizeSpeed" font-size="11.11111111111111" font-weight="normal" font-style="normal" fill="#333333" x="28.196" text-anchor="start" y="10.417" textLength="50.925926208496094" style="font-family: Arial, 'Helvetica Neue', Helvetica, sans-serif;">Utilizatorul</tspan><tspan xml:space="preserve" text-rendering="optimizeSpeed" font-size="11.11111111111111" font-weight="normal" font-style="normal" fill="#333333" x="79.122" text-anchor="start" y="10.417" textLength="3.472222089767456" style="font-family: Arial, 'Helvetica Neue', Helvetica, sans-serif;"> </tspan><tspan xml:space="preserve" text-rendering="optimizeSpeed" font-size="11.11111111111111" font-weight="normal" font-style="normal" fill="#333333" x="9.678" text-anchor="start" y="22.917" textLength="72.91666412353516" style="font-family: Arial, 'Helvetica Neue', Helvetica, sans-serif;">interactioneaza</tspan><tspan xml:space="preserve" text-rendering="optimizeSpeed" font-size="11.11111111111111" font-weight="normal" font-style="normal" fill="#333333" x="82.595" text-anchor="start" y="22.917" textLength="18.518518447875977" style="font-family: Arial, 'Helvetica Neue', Helvetica, sans-serif;"> cu </tspan><tspan xml:space="preserve" text-rendering="optimizeSpeed" font-size="11.11111111111111" font-weight="normal" font-style="normal" fill="#333333" x="42.085" text-anchor="start" y="35.417" textLength="26.62036895751953" style="font-family: Arial, 'Helvetica Neue', Helvetica, sans-serif;">graful</tspan></text></g></g><g width="144.684" height="72.948" transform="scale(1,1) translate(281.488,443.841)"><g transform="scale(1,1) translate(0,0)" stroke="#7F7F7F" fill="url(#a1f636e0-e6d9-4848-af90-8afb5d451afc)" stroke-opacity="1" filter="url(#184d402e-6c6d-4d13-8ca9-b8eca1072f8f)"><linearGradient id="a1f636e0-e6d9-4848-af90-8afb5d451afc" x1="72.3422295374558" y1="0" x2="72.3422295374558" y2="72.94811085686497" gradientUnits="userSpaceOnUse"><stop offset="0%" style="stop-color:#92B0CF;stop-opacity:1;"/><stop offset="100%" style="stop-color:#8CA8CD;stop-opacity:1;"/></linearGradient><path d="M36,0 L27.9,0.923 L24.62,1.846 L22.154,2.769 L20.119,3.692 L18.365,4.615 L16.814,5.538 L15.421,6.462 L14.156,7.385 L12.997,8.308 L11.929,9.231 L10.941,10.154 L10.022,11.077 L9.167,12 L8.369,12.923 L7.624,13.846 L6.927,14.769 L6.275,15.692 L5.665,16.615 L5.094,17.538 L4.561,18.462 L4.064,19.385 L3.6,20.308 L3.169,21.231 L2.769,22.154 L2.399,23.077 L2.059,24 L1.747,24.923 L1.462,25.846 L1.204,26.769 L0.972,27.692 L0.766,28.615 L0.585,29.538 L0.429,30.462 L0.297,31.385 L0.19,32.308 L0.107,33.231 L0.047,34.154 L0.012,35.077 L0,36 L0,36.948 L0.012,37.871 L0.047,38.794 L0.107,39.717 L0.19,40.64 L0.297,41.563 L0.429,42.487 L0.585,43.41 L0.766,44.333 L0.972,45.256 L1.204,46.179 L1.462,47.102 L1.747,48.025 L2.059,48.948 L2.399,49.871 L2.769,50.794 L3.169,51.717 L3.6,52.64 L4.064,53.563 L4.561,54.487 L5.094,55.41 L5.665,56.333 L6.275,57.256 L6.927,58.179 L7.624,59.102 L8.369,60.025 L9.167,60.948 L10.022,61.871 L10.941,62.794 L11.929,63.717 L12.997,64.64 L14.156,65.563 L15.421,66.487 L16.814,67.41 L18.365,68.333 L20.119,69.256 L22.154,70.179 L24.62,71.102 L27.9,72.025 L36,72.948 L108.684,72.948 L116.784,72.025 L120.065,71.102 L122.531,70.179 L124.566,69.256 L126.32,68.333 L127.87,67.41 L129.263,66.487 L130.528,65.563 L131.687,64.64 L132.755,63.717 L133.744,62.794 L134.662,61.871 L135.517,60.948 L136.315,60.025 L137.061,59.102 L137.758,58.179 L138.41,57.256 L139.02,56.333 L139.59,55.41 L140.123,54.487 L140.621,53.563 L141.084,52.64 L141.515,51.717 L141.915,50.794 L142.285,49.871 L142.626,48.948 L142.938,48.025 L143.223,47.102 L143.481,46.179 L143.713,45.256 L143.919,44.333 L144.1,43.41 L144.256,42.487 L144.387,41.563 L144.495,40.64 L144.578,39.717 L144.637,38.794 L144.673,37.871 L144.684,36.948 L144.684,36 L144.673,35.077 L144.637,34.154 L144.578,33.231 L144.495,32.308 L144.387,31.385 L144.256,30.462 L144.1,29.538 L143.919,28.615 L143.713,27.692 L143.481,26.769 L143.223,25.846 L142.938,24.923 L142.626,24 L142.285,23.077 L141.915,22.154 L141.515,21.231 L141.084,20.308 L140.621,19.385 L140.123,18.462 L139.59,17.538 L139.02,16.615 L138.41,15.692 L137.758,14.769 L137.061,13.846 L136.315,12.923 L135.517,12 L134.662,11.077 L133.744,10.154 L132.755,9.231 L131.687,8.308 L130.528,7.385 L129.263,6.462 L127.87,5.538 L126.32,4.615 L124.566,3.692 L122.531,2.769 L120.065,1.846 L116.784,0.923 L108.684,0 L36,0 z" stroke-width="1" stroke-dasharray="none"/></g><g width="97.60025547987144" height="46.87499713897705" transform="scale(1,1) translate(23.542,13.037)"><text width="97.60025547987144" height="46.87499713897705" transform="scale(1,1) translate(0,0)" xml:space="preserve"><tspan xml:space="preserve" text-rendering="optimizeSpeed" font-size="13.88888888888889" font-weight="normal" font-style="normal" fill="#333333" x="5.397" text-anchor="start" y="12.5" textLength="20.833332061767578" style="font-family: Arial, 'Helvetica Neue', Helvetica, sans-serif;">Se </tspan><tspan xml:space="preserve" text-rendering="optimizeSpeed" font-size="13.88888888888889" font-weight="normal" font-style="normal" fill="#333333" x="26.231" text-anchor="start" y="12.5" textLength="42.824073791503906" style="font-family: Arial, 'Helvetica Neue', Helvetica, sans-serif;">creaza</tspan><tspan xml:space="preserve" text-rendering="optimizeSpeed" font-size="13.88888888888889" font-weight="normal" font-style="normal" fill="#333333" x="69.055" text-anchor="start" y="12.5" textLength="3.472222089767456" style="font-family: Arial, 'Helvetica Neue', Helvetica, sans-serif;"> </tspan><tspan xml:space="preserve" text-rendering="optimizeSpeed" font-size="13.88888888888889" font-weight="normal" font-style="normal" fill="#333333" x="72.527" text-anchor="start" y="12.5" textLength="16.203702926635742" style="font-family: Arial, 'Helvetica Neue', Helvetica, sans-serif;">un</tspan><tspan xml:space="preserve" text-rendering="optimizeSpeed" font-size="13.88888888888889" font-weight="normal" font-style="normal" fill="#333333" x="88.731" text-anchor="start" y="12.5" textLength="3.472222089767456" style="font-family: Arial, 'Helvetica Neue', Helvetica, sans-serif;"> </tspan><tspan xml:space="preserve" text-rendering="optimizeSpeed" font-size="13.88888888888889" font-weight="normal" font-style="normal" fill="#333333" x="5.397" text-anchor="start" y="28.125" textLength="42.824073791503906" style="font-family: Arial, 'Helvetica Neue', Helvetica, sans-serif;">model </tspan><tspan xml:space="preserve" text-rendering="optimizeSpeed" font-size="13.88888888888889" font-weight="normal" font-style="normal" fill="#333333" x="48.221" text-anchor="start" y="28.125" textLength="40.50925827026367" style="font-family: Arial, 'Helvetica Neue', Helvetica, sans-serif;">pentru</tspan><tspan xml:space="preserve" text-rendering="optimizeSpeed" font-size="13.88888888888889" font-weight="normal" font-style="normal" fill="#333333" x="88.731" text-anchor="start" y="28.125" textLength="3.472222089767456" style="font-family: Arial, 'Helvetica Neue', Helvetica, sans-serif;"> </tspan><tspan xml:space="preserve" text-rendering="optimizeSpeed" font-size="13.88888888888889" font-weight="normal" font-style="normal" fill="#333333" x="36.647" text-anchor="start" y="43.75" textLength="24.30555534362793" style="font-family: Arial, 'Helvetica Neue', Helvetica, sans-serif;">graf</tspan></text></g></g><g width="60.047" height="0" transform="scale(1,1) translate(655.016,614.173)"><g fill="#545454" stroke="#545454" stroke-opacity="1" transform="scale(1,1) translate(0,0)"><path fill="none" stroke-width="1" stroke-dasharray="none" d="M0,0 L0,0 M0,0 L0,0 M60.047,0 L60.047,0 M0,0 L0,0"/><g><g stroke-dasharray="none"><path d="M0,0L-14,0L-14,-14L0,-14z" stroke-width="0" fill="none"/></g></g></g></g><g width="59.047" height="59.047" transform="scale(1,1) translate(655.016,584.65)"><g transform="scale(2.4602726686719913,2.4602751127339144) translate(0,0)" width="59.047" height="59.047" fill="url(#32f6a2e2-fab4-4e49-95be-e7a5ece8352c)" filter="url(#184d402e-6c6d-4d13-8ca9-b8eca1072f8f)"><linearGradient id="32f6a2e2-fab4-4e49-95be-e7a5ece8352c" x1="29.5235" y1="0" x2="29.5235" y2="59.047" gradientUnits="userSpaceOnUse"><stop offset="0%" style="stop-color:#92B0CF;stop-opacity:1;"/><stop offset="100%" style="stop-color:#8CA8CD;stop-opacity:1;"/></linearGradient><g><g width="23" height="23" transform="scale(1,1) translate(0.499,0.5)"><g width="23" height="23" transform="scale(1,1) translate(0,0)" stroke="#7F7F7F" stroke-width="1" stroke-dasharray="none" fill="none" stroke-opacity="1"><ellipse rx="11.5" ry="11.5" cx="11.5" cy="11.5"/></g></g><g width="11" height="11" transform="scale(1,1) translate(6.499,6.5)"><g width="11" height="11" transform="scale(1,1) translate(0,0)" stroke="#7F7F7F" stroke-width="1" stroke-dasharray="none" fill="url(#32f6a2e2-fab4-4e49-95be-e7a5ece8352c)" fill-opacity="1" stroke-opacity="1"><ellipse rx="5.5" ry="5.5" cx="5.5" cy="5.5"/></g></g></g></g></g><g width="139.289" height="41.702" transform="scale(1,1) translate(214.542,402.139)"><g transform="scale(1,1) translate(0,0)" fill="#7F7F7F" stroke="#7F7F7F" stroke-opacity="1"><path d="M0,0 L0,16.702 L139.289,16.702 L139.289,41.702" fill="none" stroke-width="2" stroke-dasharray="none"/><g><g stroke-dasharray="none"><path d="M147.289,25.702L139.289,41.702L131.289,25.702" stroke-width="1" fill="none"/></g></g></g></g><g width="107.713" height="194.426" transform="scale(1,1) translate(214.542,496.081)"><g transform="scale(1,1) translate(0,0)" fill="#000000" stroke="#000000" stroke-opacity="1"><path d="M 103.836 6.998 L 0 194.426" fill="none" stroke-width="2" stroke-dasharray="none"/><g><g stroke-dasharray="none"><path d="M103.399,6.756A8,8 298.987 1 1 104.274,7.24z" stroke-width="1" fill="none"/></g><g stroke-dasharray="none"><path d="M14.752,184.307L0,194.426L0.756,176.553" stroke-width="1" fill="none"/></g></g></g></g><g width="165.166" height="73.96" transform="scale(1,1) translate(172.417,690.506)"><g transform="scale(1,1) translate(0,0)" fill="#000000" stroke="#000000" stroke-opacity="1"><path d="M 7.301 3.27 L 165.166 73.96" fill="none" stroke-width="2" stroke-dasharray="none"/><g><g stroke-dasharray="none"><path d="M7.097,3.726A8,8 204.122 1 1 7.506,2.813z" stroke-width="1" fill="none"/></g><g stroke-dasharray="none"><path d="M153.833,60.12L165.166,73.96L147.294,74.722" stroke-width="1" fill="none"/></g></g></g></g><g width="178.306" height="103.735" transform="scale(1,1) translate(337.583,660.731)"><g transform="scale(1,1) translate(0,0)" fill="#000000" stroke="#000000" stroke-opacity="1"><path d="M 6.915 99.712 L 178.306 0" fill="none" stroke-width="2" stroke-dasharray="none"/><g><g stroke-dasharray="none"><path d="M7.166,100.144A8,8 149.81 1 1 6.663,99.28z" stroke-width="1" fill="none"/></g><g stroke-dasharray="none"><path d="M160.453,1.131L178.306,0L168.499,14.961" stroke-width="1" fill="none"/></g></g></g></g><g width="57.458" height="7.874" transform="scale(1,1) translate(597.558,614.173)"><g transform="scale(1,1) translate(0,0)" fill="#000000" stroke="#000000" stroke-opacity="1"><path d="M 7.926 6.788 L 57.458 0" fill="none" stroke-width="2" stroke-dasharray="none"/><g><g stroke-dasharray="none"><path d="M7.994,7.283A8,8 172.197 1 1 7.858,6.292z" stroke-width="1" fill="none"/></g><g stroke-dasharray="none"><path d="M40.52,-5.754L57.458,0L42.692,10.098" stroke-width="1" fill="none"/></g></g></g></g></g></svg>