<?xml version="1.0" standalone="no"?><!DOCTYPE svg PUBLIC "-//W3C//DTD SVG 1.1//EN" "http://www.w3.org/Graphics/SVG/1.1/DTD/svg11.dtd"><svg xmlns="http://www.w3.org/2000/svg" version="1.1" width="444.02" height="797.925" xmlns:xlink="http://www.w3.org/1999/xlink" xlink="http://www.w3.org/1999/xlink" style="position:relative;" viewBox="168.061 78.214 444.02 797.925"><defs><filter id="4c598635-c324-47e5-8bbf-553168e066f0" x="-0.5" y="-0.5" width="2" height="2"><feFlood flood-color="#000" flood-opacity="0.6" result="flood"/><feComposite in="flood" in2="SourceAlpha" operator="in" result="mask"/><feGaussianBlur in="mask" stdDeviation="2"/><feOffset dx="1.25" dy="1.25" result="oEffect0"/><feMerge><feMergeNode in="oEffect0"/><feMergeNode in="SourceGraphic"/></feMerge></filter><filter id="ecebbcc2-358f-4a1b-85e9-aa1591746871" x="-0.5" y="-0.5" width="2" height="2"><feFlood flood-color="#000" flood-opacity="0.6" result="flood"/><feComposite in="flood" in2="SourceAlpha" operator="in" result="mask"/><feGaussianBlur in="mask" stdDeviation="2"/><feOffset dx="0.8583333333333333" dy="0.8583333333333333" result="oEffect0"/><feMerge><feMergeNode in="oEffect0"/><feMergeNode in="SourceGraphic"/></feMerge></filter><filter id="159627f1-04c1-4db7-b541-b54213b351b8" x="-0.5" y="-0.5" width="2" height="2"><feFlood flood-color="#000" flood-opacity="0.6" result="flood"/><feComposite in="flood" in2="SourceAlpha" operator="in" result="mask"/><feGaussianBlur in="mask" stdDeviation="2"/><feOffset dx="0.6541666666666667" dy="0.6541666666666667" result="oEffect0"/><feMerge><feMergeNode in="oEffect0"/><feMergeNode in="SourceGraphic"/></feMerge></filter><filter id="b09178e1-385d-47a0-8db0-42987f11fdf2" x="-0.5" y="-0.5" width="2" height="2"><feFlood flood-color="#000" flood-opacity="0.6" result="flood"/><feComposite in="flood" in2="SourceAlpha" operator="in" result="mask"/><feGaussianBlur in="mask" stdDeviation="2"/><feOffset dx="0.05" dy="0.05" result="oEffect0"/><feMerge><feMergeNode in="oEffect0"/><feMergeNode in="SourceGraphic"/></feMerge></filter></defs><g><g width="0" height="505.05" transform="scale(1,1) translate(408.333,165.5)"><g fill="#7F7F7F" stroke="#7F7F7F" stroke-opacity="1" transform="scale(1,1) translate(0,0)"><path fill="none" stroke-width="2" stroke-dasharray="none" d="M0,0 L0,0 M0,0 L0,0 M0,505.05 L0,505.05 M0,0 L0,0 M0,20 L0,70 M0,133.537 L0,183.537 M0,289.403 L0,339.403 M0,420.717 L0,470.717"/><g><g stroke-dasharray="none"><path d="M8,54L0,70L-8,54" stroke-width="1" fill="none"/></g><g stroke-dasharray="none"><path d="M8,167.537L0,183.537L-8,167.537" stroke-width="1" fill="none"/></g><g stroke-dasharray="none"><path d="M8,323.403L0,339.403L-8,323.403" stroke-width="1" fill="none"/></g><g stroke-dasharray="none"><path d="M8,454.717L0,470.717L-8,454.717" stroke-width="1" fill="none"/></g></g></g></g><g width="167.902" height="62.537" transform="scale(1,1) translate(324.382,235.5)"><g transform="scale(1,1) translate(0,0)" stroke="#7F7F7F" fill="url(#2753c150-0254-4f3e-8c1b-ce8ff093e594)" stroke-opacity="1" filter="url(#4c598635-c324-47e5-8bbf-553168e066f0)"><linearGradient id="2753c150-0254-4f3e-8c1b-ce8ff093e594" x1="83.95092222160335" y1="0" x2="83.95092222160335" y2="62.536804363722595" gradientUnits="userSpaceOnUse"><stop offset="0%" style="stop-color:#92B0CF;stop-opacity:1;"/><stop offset="100%" style="stop-color:#8CA8CD;stop-opacity:1;"/></linearGradient><path d="M31,0 L24.025,0.795 L21.2,1.59 L19.077,2.385 L17.325,3.179 L15.814,3.974 L14.479,4.769 L13.28,5.564 L12.19,6.359 L11.192,7.154 L10.272,7.949 L9.421,8.744 L8.63,9.538 L7.894,10.333 L7.207,11.128 L6.565,11.923 L5.965,12.718 L5.403,13.513 L4.878,14.308 L4.387,15.103 L3.928,15.897 L3.499,16.692 L3.1,17.487 L2.729,18.282 L2.385,19.077 L2.066,19.872 L1.773,20.667 L1.504,21.462 L1.259,22.256 L1.036,23.051 L0.837,23.846 L0.659,24.641 L0.503,25.436 L0.369,26.231 L0.256,27.026 L0.163,27.821 L0.092,28.615 L0.041,29.41 L0.01,30.205 L0,31 L0,31.537 L0.01,32.332 L0.041,33.127 L0.092,33.921 L0.163,34.716 L0.256,35.511 L0.369,36.306 L0.503,37.101 L0.659,37.896 L0.837,38.691 L1.036,39.486 L1.259,40.28 L1.504,41.075 L1.773,41.87 L2.066,42.665 L2.385,43.46 L2.729,44.255 L3.1,45.05 L3.499,45.844 L3.928,46.639 L4.387,47.434 L4.878,48.229 L5.403,49.024 L5.965,49.819 L6.565,50.614 L7.207,51.409 L7.894,52.203 L8.63,52.998 L9.421,53.793 L10.272,54.588 L11.192,55.383 L12.19,56.178 L13.28,56.973 L14.479,57.768 L15.814,58.562 L17.325,59.357 L19.077,60.152 L21.2,60.947 L24.025,61.742 L31,62.537 L136.902,62.537 L143.877,61.742 L146.702,60.947 L148.825,60.152 L150.577,59.357 L152.088,58.562 L153.423,57.768 L154.622,56.973 L155.712,56.178 L156.71,55.383 L157.63,54.588 L158.481,53.793 L159.272,52.998 L160.008,52.203 L160.695,51.409 L161.337,50.614 L161.937,49.819 L162.499,49.024 L163.024,48.229 L163.515,47.434 L163.974,46.639 L164.403,45.844 L164.802,45.05 L165.173,44.255 L165.517,43.46 L165.836,42.665 L166.129,41.87 L166.398,41.075 L166.643,40.28 L166.865,39.486 L167.065,38.691 L167.243,37.896 L167.398,37.101 L167.533,36.306 L167.646,35.511 L167.738,34.716 L167.81,33.921 L167.861,33.127 L167.892,32.332 L167.902,31.537 L167.902,31 L167.892,30.205 L167.861,29.41 L167.81,28.615 L167.738,27.821 L167.646,27.026 L167.533,26.231 L167.398,25.436 L167.243,24.641 L167.065,23.846 L166.865,23.051 L166.643,22.256 L166.398,21.462 L166.129,20.667 L165.836,19.872 L165.517,19.077 L165.173,18.282 L164.802,17.487 L164.403,16.692 L163.974,15.897 L163.515,15.103 L163.024,14.308 L162.499,13.513 L161.937,12.718 L161.337,11.923 L160.695,11.128 L160.008,10.333 L159.272,9.538 L158.481,8.744 L157.63,7.949 L156.71,7.154 L155.712,6.359 L154.622,5.564 L153.423,4.769 L152.088,3.974 L150.577,3.179 L148.825,2.385 L146.702,1.59 L143.877,0.795 L136.902,0 L31,0 z" stroke-width="1" stroke-dasharray="none"/></g><g width="114.01742613410048" height="39.51309170819545" transform="scale(1,1) translate(26.942,11.512)"><text width="114.01742613410048" height="31.249998092651367" transform="scale(1,1) translate(0,4.13154680777204)" xml:space="preserve"><tspan xml:space="preserve" text-rendering="optimizeSpeed" font-size="13.88888888888889" font-weight="normal" font-style="normal" fill="#333333" x="24.601" text-anchor="start" y="12.5" textLength="61.34259033203125" style="font-family: Arial, 'Helvetica Neue', Helvetica, sans-serif;">Apasarea</tspan><tspan xml:space="preserve" text-rendering="optimizeSpeed" font-size="13.88888888888889" font-weight="normal" font-style="normal" fill="#333333" x="85.944" text-anchor="start" y="12.5" textLength="3.472222089767456" style="font-family: Arial, 'Helvetica Neue', Helvetica, sans-serif;"> </tspan><tspan xml:space="preserve" text-rendering="optimizeSpeed" font-size="13.88888888888889" font-weight="normal" font-style="normal" fill="#333333" x="0.874" text-anchor="start" y="28.125" textLength="59.027774810791016" style="font-family: Arial, 'Helvetica Neue', Helvetica, sans-serif;">butonului</tspan><tspan xml:space="preserve" text-rendering="optimizeSpeed" font-size="13.88888888888889" font-weight="normal" font-style="normal" fill="#333333" x="59.902" text-anchor="start" y="28.125" textLength="53.24073791503906" style="font-family: Arial, 'Helvetica Neue', Helvetica, sans-serif;"> de save</tspan></text></g></g><g width="19" height="19" transform="scale(1,1) translate(398.833,165.5)"><g width="19" height="19" transform="scale(1,1) translate(0,0)" stroke="#000000" stroke-width="1" stroke-dasharray="none" fill="#000000" fill-opacity="1" stroke-opacity="1"><ellipse rx="9.5" ry="9.5" cx="9.5" cy="9.5"/></g></g><g width="0" height="102.333" transform="scale(1,1) translate(527.559,767.806)"><g fill="#7F7F7F" stroke="#7F7F7F" stroke-opacity="1" transform="scale(1,1) translate(0,0)"><path fill="none" stroke-width="2" stroke-dasharray="none" d="M0,0 L0,0 M0,0 L0,0 M0,102.333 L0,102.333 M0,0 L0,0 M0,26.167 L0,76.167"/><g><g stroke-dasharray="none"><path d="M8,60.167L0,76.167L-8,60.167" stroke-width="1" fill="none"/></g></g></g></g><g width="25.167" height="25.167" transform="scale(1,1) translate(515.059,767.806)"><g transform="scale(1.0486103333078665,1.0486113750089026) translate(0,0)" width="25.167" height="25.167" fill="url(#e49914a9-db70-40a6-9e3c-85272a3bb61d)" filter="url(#159627f1-04c1-4db7-b541-b54213b351b8)"><linearGradient id="e49914a9-db70-40a6-9e3c-85272a3bb61d" x1="12.5835" y1="0" x2="12.5835" y2="25.167" gradientUnits="userSpaceOnUse"><stop offset="0%" style="stop-color:#92B0CF;stop-opacity:1;"/><stop offset="100%" style="stop-color:#8CA8CD;stop-opacity:1;"/></linearGradient><g><g width="23" height="23" transform="scale(1,1) translate(0.499,0.5)"><g width="23" height="23" transform="scale(1,1) translate(0,0)" stroke="#7F7F7F" stroke-width="1" stroke-dasharray="none" fill="none" stroke-opacity="1"><ellipse rx="11.5" ry="11.5" cx="11.5" cy="11.5"/></g></g><g width="11" height="11" transform="scale(1,1) translate(6.499,6.5)"><g width="11" height="11" transform="scale(1,1) translate(0,0)" stroke="#7F7F7F" stroke-width="1" stroke-dasharray="none" fill="url(#e49914a9-db70-40a6-9e3c-85272a3bb61d)" fill-opacity="1" stroke-opacity="1"><ellipse rx="5.5" ry="5.5" cx="5.5" cy="5.5"/></g></g></g></g></g><g width="238.01" height="64.333" transform="scale(1,1) translate(289.328,669.55)"><g fill="#545454" stroke="#545454" stroke-opacity="1" transform="scale(1,1) translate(0,0)" filter="url(#b09178e1-385d-47a0-8db0-42987f11fdf2)"><path fill="none" stroke-width="1" stroke-dasharray="none" d="M119.005,0 L119.005,0 M119.005,0 L119.005,0 M119.005,0 L119.005,0 M119.005,0 L0,64.333 M119.005,0 L238.01,64.333"/><g><g stroke-dasharray="none"><path d="M15.644,63.833L0,64.333L8.987,51.518" stroke-width="0.5" fill="none"/></g><g stroke-dasharray="none"><path d="M229.023,51.518L238.01,64.333L222.366,63.833" stroke-width="0.5" fill="none"/></g></g></g></g><g width="41.667" height="33.333" transform="scale(1,1) translate(387.5,636.217)"><g transform="scale(1,1) translate(0,0)" stroke="#7F7F7F" fill="#CDC29C" fill-opacity="1" stroke-opacity="1" filter="url(#ecebbcc2-358f-4a1b-85e9-aa1591746871)"><path d="M20.833,0 L41.667,16.667 L20.833,33.333 L0,16.667 L20.833,0 z" stroke-width="1" stroke-dasharray="none"/></g></g><g width="69.792" height="14.583" transform="scale(1,1) translate(449.854,674.333)"><g stroke="#000000" opacity="1" stroke-width="0" stroke-dasharray="none" width="69.792" height="14.583" transform="scale(1,1) translate(0,0)" fill="none" stroke-opacity="1"><rect width="69.792" height="14.583"/></g><g width="69.79166412353516" height="14.583333015441895" transform="scale(1,1) translate(0,0)"><text width="69.79166412353516" height="14.583333015441895" transform="scale(1,1) translate(0,0)" xml:space="preserve"><tspan xml:space="preserve" text-rendering="optimizeSpeed" font-size="12.5" font-weight="bold" font-style="normal" fill="#333333" x="0" text-anchor="start" y="11.458" textLength="69.79166412353516" style="font-family: Arial, 'Helvetica Neue', Helvetica, sans-serif;">[valid reply]</tspan></text></g></g><g width="352.182" height="50" transform="scale(1,1) translate(232.242,90.667)"><g stroke="#000000" opacity="1" stroke-width="0" stroke-dasharray="none" width="352.182" height="50" transform="scale(1,1) translate(0,0)" fill="none" stroke-opacity="1"><rect width="352.182" height="50"/></g><g width="352.18171310424805" height="49.999996185302734" transform="scale(1,1) translate(0,0)"><text width="352.18171310424805" height="49.999996185302734" transform="scale(1,1) translate(0,0)" xml:space="preserve"><tspan xml:space="preserve" text-rendering="optimizeSpeed" font-size="22.22222222222222" font-weight="bold" font-style="normal" fill="#333333" x="0" text-anchor="start" y="19.792" textLength="48.10859298706055" style="font-family: Arial, 'Helvetica Neue', Helvetica, sans-serif;">UML</tspan><tspan xml:space="preserve" text-rendering="optimizeSpeed" font-size="22.22222222222222" font-weight="bold" font-style="normal" fill="#333333" x="48.109" text-anchor="start" y="19.792" textLength="304.0731201171875" style="font-family: Arial, 'Helvetica Neue', Helvetica, sans-serif;"> Activity Diagram: Save work</tspan></text></g></g><g width="206.936" height="104.866" transform="scale(1,1) translate(304.865,349.037)"><g transform="scale(1,1) translate(0,0)" stroke="#7F7F7F" fill="#FFFFFF" fill-opacity="1" stroke-opacity="1"><path d="M52,0 L40.3,1.333 L35.562,2.667 L32,4 L29.06,5.333 L26.527,6.667 L24.287,8 L22.275,9.333 L20.448,10.667 L18.774,12 L17.231,13.333 L15.803,14.667 L14.477,16 L13.241,17.333 L12.089,18.667 L11.012,20 L10.005,21.333 L9.063,22.667 L8.182,24 L7.358,25.333 L6.588,26.667 L5.87,28 L5.2,29.333 L4.578,30.667 L4,32 L3.466,33.333 L2.974,34.667 L2.523,36 L2.111,37.333 L1.738,38.667 L1.404,40 L1.106,41.333 L0.844,42.667 L0.619,44 L0.429,45.333 L0.274,46.667 L0.154,48 L0.068,49.333 L0.017,50.667 L0,52 L0,52.866 L0.017,54.199 L0.068,55.533 L0.154,56.866 L0.274,58.199 L0.429,59.533 L0.619,60.866 L0.844,62.199 L1.106,63.533 L1.404,64.866 L1.738,66.199 L2.111,67.533 L2.523,68.866 L2.974,70.199 L3.466,71.533 L4,72.866 L4.578,74.199 L5.2,75.533 L5.87,76.866 L6.588,78.199 L7.358,79.533 L8.182,80.866 L9.063,82.199 L10.005,83.533 L11.012,84.866 L12.089,86.199 L13.241,87.533 L14.477,88.866 L15.803,90.199 L17.231,91.533 L18.774,92.866 L20.448,94.199 L22.275,95.533 L24.287,96.866 L26.527,98.199 L29.06,99.533 L32,100.866 L35.562,102.199 L40.3,103.533 L52,104.866 L154.936,104.866 L166.636,103.533 L171.374,102.199 L174.936,100.866 L177.875,99.533 L180.409,98.199 L182.649,96.866 L184.66,95.533 L186.488,94.199 L188.162,92.866 L189.705,91.533 L191.133,90.199 L192.459,88.866 L193.694,87.533 L194.847,86.199 L195.924,84.866 L196.931,83.533 L197.872,82.199 L198.754,80.866 L199.578,79.533 L200.348,78.199 L201.066,76.866 L201.736,75.533 L202.358,74.199 L202.936,72.866 L203.47,71.533 L203.962,70.199 L204.413,68.866 L204.825,67.533 L205.197,66.199 L205.532,64.866 L205.83,63.533 L206.091,62.199 L206.317,60.866 L206.507,59.533 L206.662,58.199 L206.782,56.866 L206.867,55.533 L206.919,54.199 L206.936,52.866 L206.936,52 L206.919,50.667 L206.867,49.333 L206.782,48 L206.662,46.667 L206.507,45.333 L206.317,44 L206.091,42.667 L205.83,41.333 L205.532,40 L205.197,38.667 L204.825,37.333 L204.413,36 L203.962,34.667 L203.47,33.333 L202.936,32 L202.358,30.667 L201.736,29.333 L201.066,28 L200.348,26.667 L199.578,25.333 L198.754,24 L197.872,22.667 L196.931,21.333 L195.924,20 L194.847,18.667 L193.694,17.333 L192.459,16 L191.133,14.667 L189.705,13.333 L188.162,12 L186.488,10.667 L184.66,9.333 L182.649,8 L180.409,6.667 L177.875,5.333 L174.936,4 L171.374,2.667 L166.636,1.333 L154.936,0 L52,0 z" stroke-width="1" stroke-dasharray="none"/></g><g width="141.6186176258862" height="69.44444274902344" transform="scale(1,1) translate(32.659,17.711)"><text width="141.6186176258862" height="69.44444274902344" transform="scale(1,1) translate(0,0)" xml:space="preserve"><tspan xml:space="preserve" text-rendering="optimizeSpeed" font-size="13.88888888888889" font-weight="normal" font-style="normal" fill="#000000" x="1.487" text-anchor="start" y="13.889" textLength="39.35185241699219" style="font-family: Verdana, Geneva, sans-serif;">Apare</tspan><tspan xml:space="preserve" text-rendering="optimizeSpeed" font-size="13.88888888888889" font-weight="normal" font-style="normal" fill="#000000" x="40.839" text-anchor="start" y="13.889" textLength="17.36111068725586" style="font-family: Verdana, Geneva, sans-serif;"> o </tspan><tspan xml:space="preserve" text-rendering="optimizeSpeed" font-size="13.88888888888889" font-weight="normal" font-style="normal" fill="#000000" x="58.2" text-anchor="start" y="13.889" textLength="61.09844970703125" style="font-family: Verdana, Geneva, sans-serif;">fereastra</tspan><tspan xml:space="preserve" text-rendering="optimizeSpeed" font-size="13.88888888888889" font-weight="normal" font-style="normal" fill="#000000" x="119.298" text-anchor="start" y="13.889" textLength="20.833332061767578" style="font-family: Verdana, Geneva, sans-serif;"> cu</tspan><tspan xml:space="preserve" text-rendering="optimizeSpeed" font-size="13.88888888888889" font-weight="normal" font-style="normal" fill="#000000" x="8.888" text-anchor="start" y="31.25" textLength="57.87036895751953" style="font-family: Verdana, Geneva, sans-serif;">sistemul</tspan><tspan xml:space="preserve" text-rendering="optimizeSpeed" font-size="13.88888888888889" font-weight="normal" font-style="normal" fill="#000000" x="66.758" text-anchor="start" y="31.25" textLength="25.462963104248047" style="font-family: Verdana, Geneva, sans-serif;"> de </tspan><tspan xml:space="preserve" text-rendering="optimizeSpeed" font-size="13.88888888888889" font-weight="normal" font-style="normal" fill="#000000" x="92.221" text-anchor="start" y="31.25" textLength="40.50925827026367" style="font-family: Verdana, Geneva, sans-serif;">fisiere</tspan><tspan xml:space="preserve" text-rendering="optimizeSpeed" font-size="13.88888888888889" font-weight="normal" font-style="normal" fill="#000000" x="6.573" text-anchor="start" y="48.611" textLength="25.462963104248047" style="font-family: Verdana, Geneva, sans-serif;">(se </tspan><tspan xml:space="preserve" text-rendering="optimizeSpeed" font-size="13.88888888888889" font-weight="normal" font-style="normal" fill="#000000" x="32.036" text-anchor="start" y="48.611" textLength="35.8796272277832" style="font-family: Verdana, Geneva, sans-serif;">alege</tspan><tspan xml:space="preserve" text-rendering="optimizeSpeed" font-size="13.88888888888889" font-weight="normal" font-style="normal" fill="#000000" x="67.916" text-anchor="start" y="48.611" textLength="17.36111068725586" style="font-family: Verdana, Geneva, sans-serif;"> o </tspan><tspan xml:space="preserve" text-rendering="optimizeSpeed" font-size="13.88888888888889" font-weight="normal" font-style="normal" fill="#000000" x="85.277" text-anchor="start" y="48.611" textLength="43.98147964477539" style="font-family: Verdana, Geneva, sans-serif;">locatie</tspan><tspan xml:space="preserve" text-rendering="optimizeSpeed" font-size="13.88888888888889" font-weight="normal" font-style="normal" fill="#000000" x="129.258" text-anchor="start" y="48.611" textLength="5.787036895751953" style="font-family: Verdana, Geneva, sans-serif;">)</tspan></text></g></g><g width="158.486" height="80.314" transform="scale(1,1) translate(329.09,504.903)"><g transform="scale(1,1) translate(0,0)" stroke="#7F7F7F" fill="#FFFFFF" fill-opacity="1" stroke-opacity="1"><path d="M40,0 L31,1.026 L27.355,2.051 L24.615,3.077 L22.354,4.103 L20.405,5.128 L18.682,6.154 L17.135,7.179 L15.729,8.205 L14.441,9.231 L13.255,10.256 L12.156,11.282 L11.136,12.308 L10.186,13.333 L9.299,14.359 L8.471,15.385 L7.696,16.41 L6.972,17.436 L6.294,18.462 L5.66,19.487 L5.068,20.513 L4.515,21.538 L4,22.564 L3.521,23.59 L3.077,24.615 L2.666,25.641 L2.288,26.667 L1.941,27.692 L1.624,28.718 L1.337,29.744 L1.08,30.769 L0.851,31.795 L0.65,32.821 L0.476,33.846 L0.33,34.872 L0.211,35.897 L0.119,36.923 L0.053,37.949 L0.013,38.974 L0,40 L0,40.314 L0.013,41.339 L0.053,42.365 L0.119,43.391 L0.211,44.416 L0.33,45.442 L0.476,46.468 L0.65,47.493 L0.851,48.519 L1.08,49.545 L1.337,50.57 L1.624,51.596 L1.941,52.622 L2.288,53.647 L2.666,54.673 L3.077,55.698 L3.521,56.724 L4,57.75 L4.515,58.775 L5.068,59.801 L5.66,60.827 L6.294,61.852 L6.972,62.878 L7.696,63.904 L8.471,64.929 L9.299,65.955 L10.186,66.98 L11.136,68.006 L12.156,69.032 L13.255,70.057 L14.441,71.083 L15.729,72.109 L17.135,73.134 L18.682,74.16 L20.405,75.186 L22.354,76.211 L24.615,77.237 L27.355,78.263 L31,79.288 L40,80.314 L118.486,80.314 L127.486,79.288 L131.131,78.263 L133.871,77.237 L136.132,76.211 L138.081,75.186 L139.803,74.16 L141.351,73.134 L142.757,72.109 L144.045,71.083 L145.231,70.057 L146.33,69.032 L147.35,68.006 L148.3,66.98 L149.187,65.955 L150.015,64.929 L150.79,63.904 L151.514,62.878 L152.192,61.852 L152.826,60.827 L153.418,59.801 L153.971,58.775 L154.486,57.75 L154.965,56.724 L155.409,55.698 L155.82,54.673 L156.198,53.647 L156.545,52.622 L156.862,51.596 L157.149,50.57 L157.406,49.545 L157.635,48.519 L157.836,47.493 L158.01,46.468 L158.156,45.442 L158.275,44.416 L158.367,43.391 L158.433,42.365 L158.473,41.339 L158.486,40.314 L158.486,40 L158.473,38.974 L158.433,37.949 L158.367,36.923 L158.275,35.897 L158.156,34.872 L158.01,33.846 L157.836,32.821 L157.635,31.795 L157.406,30.769 L157.149,29.744 L156.862,28.718 L156.545,27.692 L156.198,26.667 L155.82,25.641 L155.409,24.615 L154.965,23.59 L154.486,22.564 L153.971,21.538 L153.418,20.513 L152.826,19.487 L152.192,18.462 L151.514,17.436 L150.79,16.41 L150.015,15.385 L149.187,14.359 L148.3,13.333 L147.35,12.308 L146.33,11.282 L145.231,10.256 L144.045,9.231 L142.757,8.205 L141.351,7.179 L139.803,6.154 L138.081,5.128 L136.132,4.103 L133.871,3.077 L131.131,2.051 L127.486,1.026 L118.486,0 L40,0 z" stroke-width="1" stroke-dasharray="none"/></g><g width="107.35935920303469" height="52.08333206176758" transform="scale(1,1) translate(25.563,14.115)"><text width="107.35935920303469" height="52.08333206176758" transform="scale(1,1) translate(0,0)" xml:space="preserve"><tspan xml:space="preserve" text-rendering="optimizeSpeed" font-size="13.88888888888889" font-weight="normal" font-style="normal" fill="#000000" x="25.902" text-anchor="start" y="13.889" textLength="21.990739822387695" style="font-family: Verdana, Geneva, sans-serif;">Se </tspan><tspan xml:space="preserve" text-rendering="optimizeSpeed" font-size="13.88888888888889" font-weight="normal" font-style="normal" fill="#000000" x="47.893" text-anchor="start" y="13.889" textLength="28.935184478759766" style="font-family: Verdana, Geneva, sans-serif;">cere</tspan><tspan xml:space="preserve" text-rendering="optimizeSpeed" font-size="13.88888888888889" font-weight="normal" font-style="normal" fill="#000000" x="76.828" text-anchor="start" y="13.889" textLength="4.629629611968994" style="font-family: Verdana, Geneva, sans-serif;"> </tspan><tspan xml:space="preserve" text-rendering="optimizeSpeed" font-size="13.88888888888889" font-weight="normal" font-style="normal" fill="#000000" x="8.663" text-anchor="start" y="31.25" textLength="90.03363800048828" style="font-family: Verdana, Geneva, sans-serif;">confiramarea</tspan></text></g></g><g width="217.534" height="110.237" transform="scale(1,1) translate(180.561,733.883)"><g transform="scale(1,1) translate(0,0)" stroke="#7F7F7F" fill="#FFFFFF" fill-opacity="1" stroke-opacity="1"><path d="M55,0 L42.625,1.41 L37.613,2.821 L33.846,4.231 L30.737,5.641 L28.057,7.051 L25.688,8.462 L23.56,9.872 L21.627,11.282 L19.857,12.692 L18.225,14.103 L16.715,15.513 L15.312,16.923 L14.005,18.333 L12.786,19.744 L11.648,21.154 L10.583,22.564 L9.586,23.974 L8.654,25.385 L7.783,26.795 L6.968,28.205 L6.208,29.615 L5.5,31.026 L4.842,32.436 L4.231,33.846 L3.666,35.256 L3.146,36.667 L2.668,38.077 L2.233,39.487 L1.839,40.897 L1.485,42.308 L1.17,43.718 L0.893,45.128 L0.655,46.538 L0.454,47.949 L0.29,49.359 L0.163,50.769 L0.072,52.179 L0.018,53.59 L0,55 L0,55.237 L0.018,56.647 L0.072,58.057 L0.163,59.468 L0.29,60.878 L0.454,62.288 L0.655,63.698 L0.893,65.109 L1.17,66.519 L1.485,67.929 L1.839,69.34 L2.233,70.75 L2.668,72.16 L3.146,73.57 L3.666,74.981 L4.231,76.391 L4.842,77.801 L5.5,79.211 L6.208,80.622 L6.968,82.032 L7.783,83.442 L8.654,84.852 L9.586,86.263 L10.583,87.673 L11.648,89.083 L12.786,90.493 L14.005,91.904 L15.312,93.314 L16.715,94.724 L18.225,96.134 L19.857,97.545 L21.627,98.955 L23.56,100.365 L25.688,101.775 L28.057,103.186 L30.737,104.596 L33.846,106.006 L37.613,107.416 L42.625,108.827 L55,110.237 L162.534,110.237 L174.909,108.827 L179.921,107.416 L183.688,106.006 L186.797,104.596 L189.477,103.186 L191.846,101.775 L193.974,100.365 L195.907,98.955 L197.678,97.545 L199.309,96.134 L200.82,94.724 L202.222,93.314 L203.529,91.904 L204.748,90.493 L205.887,89.083 L206.952,87.673 L207.948,86.263 L208.88,84.852 L209.752,83.442 L210.566,82.032 L211.326,80.622 L212.034,79.211 L212.693,77.801 L213.303,76.391 L213.868,74.981 L214.389,73.57 L214.866,72.16 L215.301,70.75 L215.695,69.34 L216.05,67.929 L216.365,66.519 L216.641,65.109 L216.879,63.698 L217.08,62.288 L217.244,60.878 L217.371,59.468 L217.462,58.057 L217.516,56.647 L217.534,55.237 L217.534,55 L217.516,53.59 L217.462,52.179 L217.371,50.769 L217.244,49.359 L217.08,47.949 L216.879,46.538 L216.641,45.128 L216.365,43.718 L216.05,42.308 L215.695,40.897 L215.301,39.487 L214.866,38.077 L214.389,36.667 L213.868,35.256 L213.303,33.846 L212.693,32.436 L212.034,31.026 L211.326,29.615 L210.566,28.205 L209.752,26.795 L208.88,25.385 L207.948,23.974 L206.952,22.564 L205.887,21.154 L204.748,19.744 L203.529,18.333 L202.222,16.923 L200.82,15.513 L199.309,14.103 L197.678,12.692 L195.907,11.282 L193.974,9.872 L191.846,8.462 L189.477,7.051 L186.797,5.641 L183.688,4.231 L179.921,2.821 L174.909,1.41 L162.534,0 L55,0 z" stroke-width="1" stroke-dasharray="none"/></g><g width="149.1128304058851" height="73.24218571186067" transform="scale(1,1) translate(34.211,18.497)"><text width="149.1128304058851" height="69.44444274902344" transform="scale(1,1) translate(0,1.8988714814186167)" xml:space="preserve"><tspan xml:space="preserve" text-rendering="optimizeSpeed" font-size="13.88888888888889" font-weight="normal" font-style="normal" fill="#000000" x="6.984" text-anchor="start" y="13.889" textLength="56.71296310424805" style="font-family: Verdana, Geneva, sans-serif;">Procesul</tspan><tspan xml:space="preserve" text-rendering="optimizeSpeed" font-size="13.88888888888889" font-weight="normal" font-style="normal" fill="#000000" x="63.697" text-anchor="start" y="13.889" textLength="25.462963104248047" style="font-family: Verdana, Geneva, sans-serif;"> de </tspan><tspan xml:space="preserve" text-rendering="optimizeSpeed" font-size="13.88888888888889" font-weight="normal" font-style="normal" fill="#000000" x="89.16" text-anchor="start" y="13.889" textLength="48.33984375" style="font-family: Verdana, Geneva, sans-serif;">salvare</tspan><tspan xml:space="preserve" text-rendering="optimizeSpeed" font-size="13.88888888888889" font-weight="normal" font-style="normal" fill="#000000" x="137.499" text-anchor="start" y="13.889" textLength="4.629629611968994" style="font-family: Verdana, Geneva, sans-serif;"> </tspan><tspan xml:space="preserve" text-rendering="optimizeSpeed" font-size="13.88888888888889" font-weight="normal" font-style="normal" fill="#000000" x="4.533" text-anchor="start" y="31.25" textLength="19.675926208496094" style="font-family: Verdana, Geneva, sans-serif;">se </tspan><tspan xml:space="preserve" text-rendering="optimizeSpeed" font-size="13.88888888888889" font-weight="normal" font-style="normal" fill="#000000" x="24.209" text-anchor="start" y="31.25" textLength="50.925926208496094" style="font-family: Verdana, Geneva, sans-serif;">opreste</tspan><tspan xml:space="preserve" text-rendering="optimizeSpeed" font-size="13.88888888888889" font-weight="normal" font-style="normal" fill="#000000" x="75.135" text-anchor="start" y="31.25" textLength="9.259259223937988" style="font-family: Verdana, Geneva, sans-serif;">, </tspan><tspan xml:space="preserve" text-rendering="optimizeSpeed" font-size="13.88888888888889" font-weight="normal" font-style="normal" fill="#000000" x="84.394" text-anchor="start" y="31.25" textLength="55.5555534362793" style="font-family: Verdana, Geneva, sans-serif;">aplicatia</tspan><tspan xml:space="preserve" text-rendering="optimizeSpeed" font-size="13.88888888888889" font-weight="normal" font-style="normal" fill="#000000" x="139.95" text-anchor="start" y="31.25" textLength="4.629629611968994" style="font-family: Verdana, Geneva, sans-serif;"> </tspan><tspan xml:space="preserve" text-rendering="optimizeSpeed" font-size="13.88888888888889" font-weight="normal" font-style="normal" fill="#000000" x="32.89" text-anchor="start" y="48.611" textLength="13.888888359069824" style="font-family: Verdana, Geneva, sans-serif;">isi</tspan><tspan xml:space="preserve" text-rendering="optimizeSpeed" font-size="13.88888888888889" font-weight="normal" font-style="normal" fill="#000000" x="46.779" text-anchor="start" y="48.611" textLength="69.44444274902344" style="font-family: Verdana, Geneva, sans-serif;"> continua </tspan><tspan xml:space="preserve" text-rendering="optimizeSpeed" font-size="13.88888888888889" font-weight="normal" font-style="normal" fill="#000000" x="0.482" text-anchor="start" y="65.972" textLength="86.80554962158203" style="font-family: Verdana, Geneva, sans-serif;">functionarea</tspan><tspan xml:space="preserve" text-rendering="optimizeSpeed" font-size="13.88888888888889" font-weight="normal" font-style="normal" fill="#000000" x="87.288" text-anchor="start" y="65.972" textLength="4.629629611968994" style="font-family: Verdana, Geneva, sans-serif;"> </tspan><tspan xml:space="preserve" text-rendering="optimizeSpeed" font-size="13.88888888888889" font-weight="normal" font-style="normal" fill="#000000" x="91.918" text-anchor="start" y="65.972" textLength="56.71296310424805" style="font-family: Verdana, Geneva, sans-serif;">normala</tspan></text></g></g><g width="158.486" height="80.314" transform="scale(1,1) translate(448.095,733.883)"><g transform="scale(1,1) translate(0,0)" stroke="#7F7F7F" fill="#FFFFFF" fill-opacity="1" stroke-opacity="1"><path d="M40,0 L31,1.026 L27.355,2.051 L24.615,3.077 L22.354,4.103 L20.405,5.128 L18.682,6.154 L17.135,7.179 L15.729,8.205 L14.441,9.231 L13.255,10.256 L12.156,11.282 L11.136,12.308 L10.186,13.333 L9.299,14.359 L8.471,15.385 L7.696,16.41 L6.972,17.436 L6.294,18.462 L5.66,19.487 L5.068,20.513 L4.515,21.538 L4,22.564 L3.521,23.59 L3.077,24.615 L2.666,25.641 L2.288,26.667 L1.941,27.692 L1.624,28.718 L1.337,29.744 L1.08,30.769 L0.851,31.795 L0.65,32.821 L0.476,33.846 L0.33,34.872 L0.211,35.897 L0.119,36.923 L0.053,37.949 L0.013,38.974 L0,40 L0,40.314 L0.013,41.339 L0.053,42.365 L0.119,43.391 L0.211,44.416 L0.33,45.442 L0.476,46.468 L0.65,47.493 L0.851,48.519 L1.08,49.545 L1.337,50.57 L1.624,51.596 L1.941,52.622 L2.288,53.647 L2.666,54.673 L3.077,55.698 L3.521,56.724 L4,57.75 L4.515,58.775 L5.068,59.801 L5.66,60.827 L6.294,61.852 L6.972,62.878 L7.696,63.904 L8.471,64.929 L9.299,65.955 L10.186,66.98 L11.136,68.006 L12.156,69.032 L13.255,70.057 L14.441,71.083 L15.729,72.109 L17.135,73.134 L18.682,74.16 L20.405,75.186 L22.354,76.211 L24.615,77.237 L27.355,78.263 L31,79.288 L40,80.314 L118.486,80.314 L127.486,79.288 L131.131,78.263 L133.871,77.237 L136.132,76.211 L138.081,75.186 L139.803,74.16 L141.351,73.134 L142.757,72.109 L144.045,71.083 L145.231,70.057 L146.33,69.032 L147.35,68.006 L148.3,66.98 L149.187,65.955 L150.015,64.929 L150.79,63.904 L151.514,62.878 L152.192,61.852 L152.826,60.827 L153.418,59.801 L153.971,58.775 L154.486,57.75 L154.965,56.724 L155.409,55.698 L155.82,54.673 L156.198,53.647 L156.545,52.622 L156.862,51.596 L157.149,50.57 L157.406,49.545 L157.635,48.519 L157.836,47.493 L158.01,46.468 L158.156,45.442 L158.275,44.416 L158.367,43.391 L158.433,42.365 L158.473,41.339 L158.486,40.314 L158.486,40 L158.473,38.974 L158.433,37.949 L158.367,36.923 L158.275,35.897 L158.156,34.872 L158.01,33.846 L157.836,32.821 L157.635,31.795 L157.406,30.769 L157.149,29.744 L156.862,28.718 L156.545,27.692 L156.198,26.667 L155.82,25.641 L155.409,24.615 L154.965,23.59 L154.486,22.564 L153.971,21.538 L153.418,20.513 L152.826,19.487 L152.192,18.462 L151.514,17.436 L150.79,16.41 L150.015,15.385 L149.187,14.359 L148.3,13.333 L147.35,12.308 L146.33,11.282 L145.231,10.256 L144.045,9.231 L142.757,8.205 L141.351,7.179 L139.803,6.154 L138.081,5.128 L136.132,4.103 L133.871,3.077 L131.131,2.051 L127.486,1.026 L118.486,0 L40,0 z" stroke-width="1" stroke-dasharray="none"/></g><g width="107.35935920303469" height="52.08333206176758" transform="scale(1,1) translate(25.563,14.115)"><text width="107.35935920303469" height="52.08333206176758" transform="scale(1,1) translate(0,0)" xml:space="preserve"><tspan xml:space="preserve" text-rendering="optimizeSpeed" font-size="13.88888888888889" font-weight="normal" font-style="normal" fill="#000000" x="12.013" text-anchor="start" y="13.889" textLength="78.70370483398438" style="font-family: Verdana, Geneva, sans-serif;">Serializarea</tspan><tspan xml:space="preserve" text-rendering="optimizeSpeed" font-size="13.88888888888889" font-weight="normal" font-style="normal" fill="#000000" x="90.717" text-anchor="start" y="13.889" textLength="4.629629611968994" style="font-family: Verdana, Geneva, sans-serif;"> </tspan><tspan xml:space="preserve" text-rendering="optimizeSpeed" font-size="13.88888888888889" font-weight="normal" font-style="normal" fill="#000000" x="3.911" text-anchor="start" y="31.25" textLength="47.45370101928711" style="font-family: Verdana, Geneva, sans-serif;">datelor</tspan><tspan xml:space="preserve" text-rendering="optimizeSpeed" font-size="13.88888888888889" font-weight="normal" font-style="normal" fill="#000000" x="51.365" text-anchor="start" y="31.25" textLength="4.629629611968994" style="font-family: Verdana, Geneva, sans-serif;"> </tspan><tspan xml:space="preserve" text-rendering="optimizeSpeed" font-size="13.88888888888889" font-weight="normal" font-style="normal" fill="#000000" x="55.994" text-anchor="start" y="31.25" textLength="16.203702926635742" style="font-family: Verdana, Geneva, sans-serif;">pe</tspan><tspan xml:space="preserve" text-rendering="optimizeSpeed" font-size="13.88888888888889" font-weight="normal" font-style="normal" fill="#000000" x="72.198" text-anchor="start" y="31.25" textLength="31.25" style="font-family: Verdana, Geneva, sans-serif;"> disk</tspan></text></g></g><g width="25.167" height="25.167" transform="scale(1,1) translate(514.976,843.973)"><g transform="scale(1.0486103333078665,1.0486113750089026) translate(0,0)" width="25.167" height="25.167" fill="url(#49ce5cdc-2c60-45c0-a9f4-4d00179d5381)" filter="url(#159627f1-04c1-4db7-b541-b54213b351b8)"><linearGradient id="49ce5cdc-2c60-45c0-a9f4-4d00179d5381" x1="12.5835" y1="0" x2="12.5835" y2="25.167" gradientUnits="userSpaceOnUse"><stop offset="0%" style="stop-color:#92B0CF;stop-opacity:1;"/><stop offset="100%" style="stop-color:#8CA8CD;stop-opacity:1;"/></linearGradient><g><g width="23" height="23" transform="scale(1,1) translate(0.499,0.5)"><g width="23" height="23" transform="scale(1,1) translate(0,0)" stroke="#7F7F7F" stroke-width="1" stroke-dasharray="none" fill="none" stroke-opacity="1"><ellipse rx="11.5" ry="11.5" cx="11.5" cy="11.5"/></g></g><g width="11" height="11" transform="scale(1,1) translate(6.499,6.5)"><g width="11" height="11" transform="scale(1,1) translate(0,0)" stroke="#7F7F7F" stroke-width="1" stroke-dasharray="none" fill="url(#49ce5cdc-2c60-45c0-a9f4-4d00179d5381)" fill-opacity="1" stroke-opacity="1"><ellipse rx="5.5" ry="5.5" cx="5.5" cy="5.5"/></g></g></g></g></g></g></svg>